<?xml version="1.0" standalone="no"?>
<!DOCTYPE svg PUBLIC "-//W3C//DTD SVG 20010904//EN"
 "http://www.w3.org/TR/2001/REC-SVG-20010904/DTD/svg10.dtd">
<svg version="1.0" xmlns="http://www.w3.org/2000/svg"
 width="432.000000pt" height="118.000000pt" viewBox="0 0 432.000000 118.000000"
 preserveAspectRatio="xMidYMid meet">

<g transform="translate(0.000000,118.000000) scale(0.100000,-0.100000)"
fill="#000000" stroke="none">
<path d="M2900 1025 l0 -85 120 0 120 0 0 85 0 85 -120 0 -120 0 0 -85z"/>
<path d="M3380 1055 c0 -54 0 -55 30 -55 17 0 30 -5 30 -11 0 -6 -7 -9 -15 -5
-16 6 -17 1 -18 -66 0 -52 -17 -48 -18 5 -1 23 -3 34 -6 24 -4 -14 -11 -18
-29 -14 -20 3 -23 1 -19 -13 3 -9 -1 -23 -9 -29 -17 -14 -48 -11 -53 5 -2 7 6
10 22 7 33 -7 32 6 -2 33 -26 21 -27 24 -14 46 13 21 13 22 -3 9 -11 -10 -15
-22 -11 -38 5 -22 3 -23 -60 -23 l-65 0 0 -85 0 -85 120 0 120 0 0 55 c0 49 2
55 21 55 13 0 20 6 18 18 -4 42 1 53 20 47 14 -4 21 2 31 26 l13 31 16 -29
c10 -18 22 -28 33 -25 9 2 18 -4 21 -15 3 -10 5 3 6 30 1 45 2 47 30 47 16 0
31 -3 34 -7 2 -5 2 -2 0 5 -1 8 -3 36 -3 63 l0 49 -120 0 -120 0 0 -55z"/>
<path d="M3870 1025 l0 -85 120 0 121 0 -3 83 -3 82 -117 3 -118 3 0 -86z"/>
<path d="M3350 999 c0 -6 -6 -9 -14 -6 -10 4 -12 0 -8 -15 5 -20 6 -20 19 -3
13 19 17 35 8 35 -3 0 -5 -5 -5 -11z"/>
<path d="M3657 1003 c-4 -3 -7 -11 -7 -17 0 -7 3 -7 8 0 4 7 18 14 32 17 l25
4 -26 2 c-14 0 -29 -2 -32 -6z"/>
<path d="M3286 971 c-4 -5 3 -7 14 -4 23 6 26 13 6 13 -8 0 -17 -4 -20 -9z"/>
<path d="M3574 969 c-3 -6 0 -17 7 -25 18 -17 44 -2 36 20 -7 18 -33 21 -43 5z"/>
<path d="M3476 925 c-3 -9 0 -15 9 -15 16 0 20 16 6 24 -5 3 -11 -1 -15 -9z"/>
<path d="M3620 925 c-5 -6 -7 -15 -4 -18 8 -7 11 -33 13 -99 l1 -48 115 0 115
0 0 84 0 84 -75 4 -75 3 0 -28 c0 -16 -4 -26 -10 -22 -5 3 -10 16 -10 28 0 18
-6 22 -30 23 -16 1 -34 -4 -40 -11z"/>
<path d="M3575 910 c-3 -5 1 -10 10 -10 9 0 13 5 10 10 -3 6 -8 10 -10 10 -2
0 -7 -4 -10 -10z"/>
<path d="M3545 889 c-4 -6 -13 -8 -21 -5 -8 3 -14 1 -14 -4 0 -6 11 -10 25
-10 16 0 25 6 25 15 0 18 -6 19 -15 4z"/>
<path d="M3440 880 c-13 -8 -13 -10 2 -10 9 0 20 5 23 10 8 13 -5 13 -25 0z"/>
<path d="M1828 443 c7 -3 16 -2 19 1 4 3 -2 6 -13 5 -11 0 -14 -3 -6 -6z"/>
<path d="M2410 371 c0 -5 5 -13 10 -16 6 -3 10 -2 10 4 0 5 -4 13 -10 16 -5 3
-10 2 -10 -4z"/>
<path d="M1923 305 c-17 -7 -37 -23 -43 -34 -6 -12 -14 -20 -18 -17 -4 2 -6
-14 -3 -37 3 -38 2 -40 -13 -25 -9 9 -16 30 -16 47 0 16 -5 33 -11 36 -14 9
-15 7 -22 -52 -6 -51 -5 -53 18 -53 13 0 27 -4 30 -10 4 -7 -305 -10 -919 -10
l-926 0 0 -39 c0 -24 8 -48 20 -62 10 -13 19 -18 20 -11 0 17 20 15 20 -2 0
-19 48 -16 60 4 8 13 10 12 10 -2 0 -19 11 -23 24 -11 4 5 13 8 19 8 5 0 12 6
14 12 3 9 -8 13 -36 13 -23 0 -41 5 -41 10 0 17 189 13 206 -5 8 -8 15 -17 14
-20 -1 -22 3 -24 24 -10 20 13 24 14 29 2 8 -20 57 -19 57 1 0 13 3 12 15 -4
10 -14 17 -16 23 -7 11 17 65 25 74 10 5 -9 10 -9 19 0 8 8 18 9 30 2 14 -7
24 -3 43 16 23 23 32 25 126 25 60 0 100 -4 100 -10 0 -6 -43 -10 -110 -10
-89 0 -110 -3 -110 -14 0 -8 4 -18 10 -21 5 -3 10 -2 10 3 0 5 9 12 20 15 13
3 20 0 20 -8 0 -14 36 -15 57 -2 6 4 13 1 16 -5 3 -10 7 -10 20 0 21 18 77 24
77 10 0 -9 3 -9 11 -1 8 8 20 8 35 3 18 -7 26 -5 33 7 7 14 10 13 16 -6 5 -18
10 -20 21 -10 8 6 21 8 31 3 34 -15 62 -13 66 4 4 15 5 15 6 0 1 -20 27 -25
33 -7 2 6 16 12 31 12 15 0 27 3 27 8 0 5 -45 9 -101 9 -64 0 -98 4 -94 10 8
13 242 13 250 0 4 -6 -5 -10 -19 -10 -16 0 -26 -6 -26 -15 0 -8 5 -15 10 -15
6 0 10 4 10 9 0 6 9 9 20 8 11 -1 20 -5 20 -9 0 -15 19 -8 23 10 4 14 6 14 12
-6 9 -26 9 -26 35 -9 15 8 23 9 28 1 4 -6 16 -11 27 -11 11 0 23 5 28 11 5 8
10 7 16 -3 7 -11 12 -10 32 2 27 18 57 17 68 -2 6 -10 10 -9 14 2 6 16 23 17
43 4 12 -7 24 0 24 15 0 4 -54 8 -121 8 -77 0 -118 4 -114 10 8 13 252 13 259
1 4 -5 1 -11 -6 -13 -7 -3 -9 -12 -5 -22 6 -14 10 -16 21 -7 7 6 16 8 19 4 4
-3 7 0 7 8 0 12 2 12 9 0 13 -21 61 -24 61 -3 0 13 2 13 15 -4 11 -14 17 -16
23 -7 4 7 18 14 31 16 12 2 26 9 30 16 6 9 10 6 15 -11 4 -16 8 -19 14 -11 9
14 61 8 77 -8 14 -14 23 -11 28 9 4 16 5 16 6 0 1 -19 31 -26 31 -7 0 5 4 8 9
4 5 -3 12 -1 16 4 3 6 12 8 20 4 8 -3 15 0 15 6 0 7 -36 11 -107 11 -75 0
-103 3 -93 10 8 6 59 10 113 9 95 -1 97 -2 97 -25 0 -13 5 -24 10 -24 6 0 10
4 10 9 0 6 9 9 20 8 11 -1 20 -5 20 -9 0 -4 5 -8 10 -8 6 0 10 7 10 15 0 8 -7
15 -16 15 -8 0 -12 5 -9 10 3 6 50 10 106 10 59 0 99 -4 99 -10 0 -6 -33 -10
-80 -10 -63 0 -80 -3 -80 -14 0 -8 5 -18 10 -21 6 -3 10 -1 10 4 0 17 32 13
46 -6 8 -11 13 -13 14 -6 0 7 6 10 14 7 8 -3 17 0 21 6 6 9 9 9 15 -1 7 -10
11 -10 24 0 9 8 16 10 16 5 0 -4 7 1 15 12 8 10 15 14 15 7 0 -7 7 -10 15 -7
8 4 15 1 15 -5 0 -6 5 -11 10 -11 6 0 10 7 10 15 0 8 -8 15 -17 15 -17 1 -17
1 -1 11 10 5 59 8 110 7 90 -3 93 -4 106 -30 13 -27 32 -38 32 -18 0 6 6 10
14 10 8 0 17 6 19 13 4 9 6 9 6 0 1 -19 19 -16 24 5 4 13 5 11 6 -5 1 -23 11
-29 25 -16 11 11 30 10 39 -2 4 -6 10 -5 17 5 8 12 2 16 -31 18 -76 6 -27 22
67 22 l94 0 0 35 0 35 -88 0 c-48 0 -92 4 -98 10 -5 5 -22 11 -37 12 -22 2
-27 7 -27 31 0 63 -44 106 -108 107 -60 0 -102 -41 -102 -99 l0 -40 -205 -3
c-190 -3 -205 -2 -205 15 0 15 14 17 154 17 152 0 155 0 185 26 17 14 31 32
31 39 0 25 -21 28 -41 6 -28 -29 -47 -32 -199 -29 l-135 3 3 25 c1 17 -1 21
-7 11 -6 -10 -10 -10 -16 -1 -7 11 -27 21 -70 33 -11 3 -34 0 -52 -8z m97 -62
c15 -19 19 -35 15 -53 -20 -84 -134 -72 -135 14 0 66 79 91 120 39z m612 10
c21 -19 24 -71 6 -96 -20 -26 -70 -32 -95 -10 -33 27 -38 64 -13 96 25 32 73
37 102 10z m-2047 -183 c4 -6 -32 -10 -100 -10 -68 0 -104 4 -100 10 3 6 48
10 100 10 52 0 97 -4 100 -10z"/>
<path d="M2990 111 c0 -22 5 -42 13 -44 10 -4 10 -6 0 -6 -7 -1 -13 -5 -13
-10 0 -5 12 -8 28 -7 15 2 33 -1 40 -7 10 -8 16 -7 22 3 4 7 14 11 21 8 26
-10 34 -8 34 10 0 15 14 17 119 20 73 2 123 -1 130 -8 7 -7 -19 -10 -83 -10
-82 0 -92 -2 -89 -17 4 -19 58 -29 58 -11 0 6 6 5 16 -3 13 -10 17 -10 24 0 4
8 13 10 19 7 6 -4 11 -3 11 2 0 13 33 10 43 -3 4 -6 10 -5 16 4 5 7 13 11 19
7 6 -3 13 0 15 6 3 8 6 6 6 -4 1 -22 21 -24 21 -3 0 8 5 15 10 15 6 0 10 -7
10 -16 0 -12 7 -14 30 -9 18 4 30 3 30 -4 0 -13 43 -10 53 4 4 6 10 5 16 -4 8
-12 12 -12 25 -2 22 19 65 21 75 4 7 -13 9 -13 14 1 7 18 37 22 37 5 0 -6 6
-9 13 -6 6 2 12 12 12 23 0 17 9 19 85 22 99 3 130 -2 130 -24 0 -8 5 -12 10
-9 6 3 10 28 10 56 l0 49 -515 0 -515 0 0 -39z m725 -41 c4 -6 -32 -10 -100
-10 -68 0 -104 4 -100 10 3 6 48 10 100 10 52 0 97 -4 100 -10z"/>
<path d="M4064 136 c-3 -8 -4 -25 -2 -37 3 -21 7 -22 100 -20 59 1 99 -2 103
-8 3 -7 -2 -11 -14 -11 -12 0 -21 -5 -21 -11 0 -6 6 -9 14 -6 8 3 17 -1 20 -9
3 -9 10 -12 16 -9 6 4 8 10 5 15 -3 4 4 10 15 13 16 4 20 14 20 51 l0 46 -125
0 c-100 0 -127 -3 -131 -14z"/>
<path d="M200 49 c0 -6 6 -9 14 -6 8 3 17 1 20 -6 3 -9 7 -8 15 3 8 12 14 13
30 3 18 -12 31 -8 31 9 0 4 -25 8 -55 8 -34 0 -55 -4 -55 -11z"/>
<path d="M2454 45 c19 -14 36 -12 36 6 0 5 -12 9 -27 9 -27 -1 -27 -1 -9 -15z"/>
<path d="M2500 46 c0 -19 17 -29 25 -16 4 6 11 8 16 5 5 -4 9 0 9 7 0 9 3 9
10 -2 5 -8 21 -16 35 -17 19 -1 25 3 25 18 0 17 -7 19 -60 19 -46 0 -60 -3
-60 -14z"/>
<path d="M2830 46 c0 -19 20 -32 21 -14 0 7 4 4 9 -7 8 -18 9 -18 10 5 0 21 2
23 13 10 18 -24 57 -23 57 1 0 16 -7 19 -55 19 -41 0 -55 -4 -55 -14z"/>
<path d="M3150 47 c0 -22 11 -27 31 -14 26 16 24 27 -6 27 -14 0 -25 -6 -25
-13z"/>
<path d="M3800 46 c0 -23 19 -29 37 -11 14 15 17 15 25 1 5 -8 15 -13 23 -10
9 4 15 0 15 -7 1 -8 7 -3 14 10 l13 23 7 -23 c6 -22 7 -23 20 -6 7 9 18 17 25
17 6 0 11 5 11 10 0 6 -38 10 -95 10 -76 0 -95 -3 -95 -14z"/>
<path d="M4060 49 c0 -5 5 -7 10 -4 6 4 17 1 25 -5 12 -10 15 -10 15 1 1 9 4
8 11 -4 11 -19 29 -14 29 9 0 10 -12 14 -45 14 -25 0 -45 -5 -45 -11z"/>
<path d="M4160 46 c0 -20 21 -31 30 -16 4 7 13 9 19 6 6 -4 11 0 11 8 0 11 -9
16 -30 16 -19 0 -30 -5 -30 -14z"/>
<path d="M580 20 c0 -5 5 -10 11 -10 5 0 7 5 4 10 -3 6 -8 10 -11 10 -2 0 -4
-4 -4 -10z"/>
<path d="M2115 20 c3 -5 8 -10 11 -10 2 0 4 5 4 10 0 6 -5 10 -11 10 -5 0 -7
-4 -4 -10z"/>
<path d="M2211 14 c0 -11 3 -14 6 -6 3 7 2 16 -1 19 -3 4 -6 -2 -5 -13z"/>
<path d="M2765 20 c-3 -5 -1 -10 4 -10 6 0 11 5 11 10 0 6 -2 10 -4 10 -3 0
-8 -4 -11 -10z"/>
</g>
</svg>
