<?xml version="1.0" standalone="no"?>
<!DOCTYPE svg PUBLIC "-//W3C//DTD SVG 20010904//EN"
 "http://www.w3.org/TR/2001/REC-SVG-20010904/DTD/svg10.dtd">
<svg version="1.0" xmlns="http://www.w3.org/2000/svg"
 width="141.000000pt" height="114.000000pt" viewBox="0 0 141.000000 114.000000"
 preserveAspectRatio="xMidYMid meet">

<g transform="translate(0.000000,114.000000) scale(0.100000,-0.100000)"
fill="#000000" stroke="none">
<path d="M0 570 l0 -570 705 0 705 0 0 570 0 570 -705 0 -705 0 0 -570z m1169
254 c24 -5 41 -20 67 -58 40 -59 43 -83 12 -96 -28 -11 -469 -73 -475 -66 -6
6 62 120 99 166 15 19 38 40 50 47 24 13 192 18 247 7z m-362 -23 c-7 -26
-130 -200 -143 -200 -5 -1 -25 14 -43 33 l-34 35 68 75 c66 73 70 76 113 76
38 0 44 -3 39 -19z m-379 -408 c47 -35 66 -70 66 -121 0 -91 -61 -152 -152
-152 -159 0 -208 209 -67 284 39 21 118 15 153 -11z"/>
</g>
</svg>
