<svg version="1.1" id="Layer_1" xmlns="http://www.w3.org/2000/svg" xmlns:xlink="http://www.w3.org/1999/xlink" x="0px" y="0px"
	 width="100%" viewBox="0 0 432 118" enable-background="new 0 0 432 118" xml:space="preserve">
<path fill="#FAFAFA" opacity="1.000000" stroke="none" 
	d="
M325.000000,1.000002 
	C361.000031,1.000000 397.000061,1.000000 433.000000,1.000000 
	C433.000000,5.417052 433.000000,9.734398 432.607849,14.474385 
	C429.272430,13.791292 426.062927,13.106973 423.460052,11.462518 
	C420.803589,9.784218 418.999146,6.772313 416.363251,5.043007 
	C412.090576,2.239889 404.564392,3.896656 401.510010,7.826609 
	C396.715637,7.952139 392.374359,7.983654 387.562439,7.997189 
	C379.058624,7.987272 371.025391,7.995335 362.524292,7.987568 
	C354.432404,8.011357 346.808380,8.050976 338.705109,8.060295 
	C330.508209,8.349561 322.790558,8.669124 314.806274,8.646111 
	C306.802948,8.303535 299.066284,8.303535 290.977234,8.303535 
	C290.977234,14.128056 290.977234,19.592489 290.967743,25.521442 
	C290.974609,29.966890 291.255035,33.969738 290.926971,37.922077 
	C290.644775,41.322399 291.737488,43.285645 295.049377,44.466072 
	C295.017029,64.693909 294.988312,84.452728 294.503326,104.123215 
	C289.359070,104.079559 284.671051,104.124229 279.704102,104.062622 
	C279.030945,103.956818 278.636688,103.957298 278.122711,103.665222 
	C277.552551,102.948013 277.102173,102.523361 276.675232,101.685074 
	C276.048859,98.210335 275.398987,95.149246 274.802917,91.730743 
	C272.120270,84.759575 267.063416,81.393318 260.022919,81.051483 
	C256.732574,80.891724 253.423721,81.114006 249.957520,80.854256 
	C247.228973,78.044861 244.666138,75.544334 241.770020,72.886749 
	C239.609711,71.998985 237.836487,70.847404 235.946960,70.605988 
	C223.836899,69.058693 212.478195,70.901688 202.150452,78.707413 
	C198.783829,79.052490 195.851807,79.353371 192.712082,79.560600 
	C192.504395,79.466949 192.078934,79.630074 191.697052,79.495667 
	C190.780609,79.396049 190.246033,79.430840 189.406952,79.330795 
	C188.146484,78.658592 187.190567,78.121231 186.843216,77.925972 
	C187.724899,75.590240 188.472275,73.610283 189.219666,71.630325 
	C186.041412,71.031853 182.863144,70.433365 179.684891,69.834877 
	C179.310745,70.496658 178.936584,71.158432 178.562439,71.820213 
	C179.886932,73.281654 180.984421,75.111176 182.596893,76.105675 
	C184.368347,77.198189 185.681564,77.930946 183.877228,80.163124 
	C178.434372,83.117706 180.586060,87.812637 180.461487,92.389404 
	C180.325287,94.531715 180.314133,96.258568 180.138748,98.176712 
	C179.933121,98.530899 179.891739,98.693802 179.545258,98.959702 
	C176.832993,102.695992 181.411240,102.131447 181.661804,103.934464 
	C121.124756,103.991058 61.062378,103.995529 1.000000,104.000000 
	C1.000000,69.743073 1.000000,35.486145 1.000000,1.000000 
	C32.020519,1.000000 63.041599,1.000000 94.619873,1.396671 
	C96.179924,2.195219 97.180511,2.940067 98.185966,2.946692 
	C110.160965,3.025600 122.137733,3.070296 134.110992,2.904062 
	C135.749146,2.881318 137.370743,1.664158 139.000000,1.000001 
	C184.020889,1.000000 229.041794,1.000000 274.575867,1.359969 
	C277.310791,3.144997 279.494263,5.727264 281.760651,5.802234 
	C293.993500,6.206881 306.256409,6.236286 318.484467,5.762532 
	C320.714478,5.676135 322.831055,2.662409 325.000000,1.000002 
z"/>
<path fill="#449C31" opacity="1.000000" stroke="none" 
	d="
M433.000000,113.000000 
	C433.000000,114.997742 433.000000,116.995483 433.000000,118.994919 
	C289.000000,118.996613 145.000000,118.996613 1.000000,118.995804 
	C1.000000,117.663170 1.000000,116.331329 1.376414,114.477066 
	C4.076765,114.116173 6.714560,111.740311 8.780615,114.852005 
	C8.906991,115.042343 10.880653,114.069855 11.950942,113.548393 
	C12.724053,113.171730 13.427358,112.246216 14.156649,112.251694 
	C18.559885,112.284729 23.050701,113.114632 27.333801,112.477875 
	C30.387817,112.023834 33.020180,110.593422 35.254478,113.822365 
	C35.352009,113.963310 36.059589,113.937950 36.173279,113.774551 
	C39.138309,109.513153 43.489822,113.733673 46.997726,112.281128 
	C47.731541,112.684601 48.317619,112.813843 49.273449,112.960121 
	C51.597839,112.291916 53.552479,111.606674 55.507118,110.921440 
	C55.436268,111.213821 55.365421,111.506203 55.294571,111.798584 
	C57.866711,112.194542 60.438854,112.590500 63.046341,113.139984 
	C63.171928,113.252930 63.262169,113.212357 63.352413,113.171783 
	C63.230770,113.117805 63.109123,113.063820 63.054070,112.678917 
	C63.300117,112.081070 63.488098,111.575233 63.657822,111.581291 
	C75.705788,112.011124 87.754303,112.878685 99.798256,112.817764 
	C108.706627,112.772705 117.609970,110.842453 126.478821,113.504738 
	C127.129387,113.700027 128.300385,112.161598 129.229431,111.429199 
	C129.306885,111.923683 129.384354,112.418175 129.461807,112.912659 
	C132.050583,112.738602 134.639359,112.564537 137.184601,112.403107 
	C137.141083,112.415726 137.051193,112.427269 137.055542,112.771820 
	C137.393112,113.608315 137.726318,114.100243 138.059525,114.592178 
	C138.413391,114.088936 138.767258,113.585686 139.538055,113.051262 
	C141.379135,113.239792 142.895599,113.879562 144.208084,113.591141 
	C146.882858,113.003349 149.447723,111.915268 152.370850,111.144470 
	C154.849609,111.498734 157.026474,111.670624 159.177811,112.006271 
	C161.078857,112.302872 162.951416,112.781982 166.007980,113.428169 
	C171.384537,112.365059 179.387405,117.194374 185.266937,110.736458 
	C187.163651,111.897820 188.930893,111.608559 190.476089,112.067284 
	C196.977997,113.997520 203.510834,110.899658 210.369385,113.146355 
	C215.735245,114.904076 222.279526,113.044212 228.301392,112.824196 
	C237.170837,112.500153 246.041351,112.205025 255.189621,111.855988 
	C255.970016,111.581581 256.472198,111.348770 257.081573,111.323502 
	C257.384399,111.785278 257.632599,111.968102 258.080048,112.359146 
	C259.139374,112.484695 260.052032,112.330589 261.350128,112.156792 
	C266.822693,114.342285 271.847504,109.327705 277.155579,112.284851 
	C278.634064,112.371109 279.895691,112.178444 281.531128,111.999954 
	C285.829742,112.239922 289.753510,112.490402 293.680817,112.655632 
	C294.101654,112.673340 294.543427,112.194298 295.293701,112.091782 
	C296.419922,113.172829 297.227905,114.107773 298.090790,115.106293 
	C299.220764,113.894966 300.097260,112.955322 301.244629,111.997086 
	C316.854187,111.978508 332.192902,111.978508 347.551300,111.978508 
	C348.894104,112.516663 350.753357,114.030716 351.942719,113.617348 
	C361.821045,110.184189 372.089508,113.489250 382.059753,111.957230 
	C383.178528,112.230812 384.247742,112.131104 385.553680,111.883926 
	C388.896118,112.135925 392.047394,113.050133 395.093781,112.780235 
	C397.775330,112.542664 400.339508,110.980919 403.217712,110.214706 
	C404.631256,114.261276 406.416931,112.761383 408.568481,110.996750 
	C410.753571,113.336693 413.203033,111.669159 415.357208,111.931824 
	C421.212402,112.645737 427.243347,110.523804 433.000000,113.000000 
z"/>
<path fill="#36474D" opacity="1.000000" stroke="none" 
	d="
M63.010998,112.986465 
	C60.438854,112.590500 57.866711,112.194542 55.294571,111.798584 
	C55.365421,111.506203 55.436268,111.213821 55.507118,110.921440 
	C53.552479,111.606674 51.597839,112.291916 49.231430,112.694901 
	C48.163101,112.277390 47.506550,112.142143 46.849995,112.006897 
	C43.489822,113.733673 39.138309,109.513153 36.173279,113.774551 
	C36.059589,113.937950 35.352009,113.963310 35.254478,113.822365 
	C33.020180,110.593422 30.387817,112.023834 27.333801,112.477875 
	C23.050701,113.114632 18.559885,112.284729 14.156649,112.251694 
	C13.427358,112.246216 12.724053,113.171730 11.950942,113.548393 
	C10.880653,114.069855 8.906991,115.042343 8.780615,114.852005 
	C6.714560,111.740311 4.076765,114.116173 1.376414,113.977310 
	C1.000000,110.969406 1.000000,107.938812 1.000000,104.454109 
	C61.062378,103.995529 121.124756,103.991058 181.872498,104.037781 
	C182.557877,104.088974 183.011551,104.217056 183.302414,104.446533 
	C185.959549,105.549591 188.311829,106.463829 190.696609,107.283569 
	C192.527664,107.912971 194.476700,108.247841 196.238144,109.021400 
	C200.518097,110.901024 202.638611,106.249489 206.607498,105.911919 
	C221.652451,105.905960 236.242371,105.905190 251.194885,105.966370 
	C252.675446,107.984734 253.793427,109.941154 254.911407,111.897575 
	C246.041351,112.205025 237.170837,112.500153 228.301392,112.824196 
	C222.279526,113.044212 215.735245,114.904076 210.369385,113.146355 
	C203.510834,110.899658 196.977997,113.997520 190.476089,112.067284 
	C188.930893,111.608559 187.163651,111.897820 185.266937,110.736458 
	C179.387405,117.194374 171.384537,112.365059 166.007980,113.428169 
	C162.951416,112.781982 161.078857,112.302872 159.177811,112.006271 
	C157.026474,111.670624 154.849609,111.498734 151.899216,111.148338 
	C146.485779,111.490852 141.856949,111.940666 137.228134,112.390480 
	C134.639359,112.564537 132.050583,112.738602 129.461807,112.912659 
	C129.384354,112.418175 129.306885,111.923683 129.229431,111.429199 
	C128.300385,112.161598 127.129387,113.700027 126.478821,113.504738 
	C117.609970,110.842453 108.706627,112.772705 99.798256,112.817764 
	C87.754303,112.878685 75.705788,112.011124 63.657822,111.581291 
	C63.488098,111.575233 63.300117,112.081070 63.060459,112.673798 
	C63.000263,112.999603 63.010998,112.986458 63.010998,112.986465 
z"/>
<path fill="#FAFAFA" opacity="1.000000" stroke="none" 
	d="
M433.000000,32.000000 
	C433.000000,55.354229 433.000000,78.708458 432.788849,102.610687 
	C432.316437,103.326454 432.123260,103.552429 431.534119,103.904785 
	C423.046967,103.980797 415.023926,103.988640 407.035248,103.529060 
	C407.050537,83.040726 407.031464,63.019810 407.422455,43.000343 
	C410.737976,43.195160 412.146423,41.912308 412.012482,38.927628 
	C411.923737,36.950245 412.003967,34.965282 412.430359,32.972908 
	C419.568085,32.641403 426.284058,32.320702 433.000000,32.000000 
z"/>
<path fill="#D3F0F8" opacity="1.000000" stroke="none" 
	d="
M433.000000,31.532394 
	C426.284058,32.320702 419.568085,32.641403 412.428223,32.527584 
	C411.988525,29.707352 411.972778,27.321642 411.922699,24.473011 
	C411.888367,18.803215 411.888367,13.596337 411.888367,8.235780 
	C408.131531,8.045319 405.047302,7.888956 401.963074,7.732593 
	C404.564392,3.896656 412.090576,2.239889 416.363251,5.043007 
	C418.999146,6.772313 420.803589,9.784218 423.460052,11.462518 
	C426.062927,13.106973 429.272430,13.791292 432.607849,14.948513 
	C433.000000,20.354929 433.000000,25.709860 433.000000,31.532394 
z"/>
<path fill="#D4F1F9" opacity="1.000000" stroke="none" 
	d="
M324.531342,1.000002 
	C322.831055,2.662409 320.714478,5.676135 318.484467,5.762532 
	C306.256409,6.236286 293.993500,6.206881 281.760651,5.802234 
	C279.494263,5.727264 277.310791,3.144997 275.044525,1.359969 
	C291.354218,1.000000 307.708466,1.000000 324.531342,1.000002 
z"/>
<path fill="#394851" opacity="1.000000" stroke="none" 
	d="
M407.000885,103.996475 
	C415.023926,103.988640 423.046967,103.980797 431.776825,103.992996 
	C432.655762,104.008690 432.827881,104.004341 433.000000,104.000000 
	C433.000000,106.700012 433.000000,109.400032 433.000000,112.550018 
	C427.243347,110.523804 421.212402,112.645737 415.357208,111.931824 
	C413.203033,111.669159 410.753571,113.336693 408.458160,110.620361 
	C407.623505,108.487473 407.232849,106.737015 406.902374,104.742310 
	C406.975342,104.330872 406.988098,104.163666 407.000885,103.996475 
z"/>
<path fill="#D4F2F9" opacity="1.000000" stroke="none" 
	d="
M138.531342,1.000001 
	C137.370743,1.664158 135.749146,2.881318 134.110992,2.904062 
	C122.137733,3.070296 110.160965,3.025600 98.185966,2.946692 
	C97.180511,2.940067 96.179924,2.195219 95.088531,1.396671 
	C109.354225,1.000000 123.708458,1.000000 138.531342,1.000001 
z"/>
<path fill="#E6E8EA" opacity="1.000000" stroke="none" 
	d="
M433.000000,103.750000 
	C432.827881,104.004341 432.655762,104.008690 432.240906,103.924828 
	C432.123260,103.552429 432.316437,103.326454 432.788849,103.079346 
	C433.000000,103.000000 433.000000,103.500000 433.000000,103.750000 
z"/>
<path fill="#FA6963" opacity="1.000000" stroke="none" 
	d="
M274.749115,92.088150 
	C275.398987,95.149246 276.048859,98.210335 276.239441,101.681686 
	C273.710266,102.148170 271.640381,102.204399 269.629181,101.826439 
	C270.163147,96.439789 269.177124,91.603912 264.406708,89.622353 
	C261.464752,88.400299 257.153412,88.440247 254.216202,89.693390 
	C249.150314,91.854729 248.539734,96.914848 248.732239,102.007698 
	C237.473862,102.025734 226.702454,101.966209 215.932907,102.081696 
	C213.163696,102.111389 210.400391,102.692284 207.686432,102.621887 
	C207.851593,101.159615 207.964706,100.095421 208.540039,99.016426 
	C217.302521,98.996368 225.635376,99.415611 233.887512,98.782646 
	C237.320206,98.519348 240.685394,96.193741 243.836487,94.380478 
	C244.514496,93.990334 244.136688,91.765366 244.245239,90.385590 
	C243.733002,90.125603 243.220764,89.865616 242.708511,89.605621 
	C239.542938,95.398094 234.415314,95.149925 229.189529,95.044579 
	C222.055817,94.900780 214.915817,95.069710 207.609406,94.818192 
	C203.376953,88.879059 199.837112,87.106735 195.181198,88.393913 
	C190.001038,89.826035 187.638123,93.221451 186.704178,99.977715 
	C185.543854,98.517731 184.891693,97.014519 183.953476,95.718376 
	C182.974762,94.366280 181.720383,93.213730 180.586517,91.973946 
	C180.586060,87.812637 178.434372,83.117706 183.979126,80.171066 
	C184.454605,80.128151 184.659866,80.149330 184.843460,80.506485 
	C188.849960,81.562889 192.647507,82.488739 196.500427,82.919830 
	C209.136398,84.333656 221.769089,86.000893 234.450851,86.686417 
	C240.702011,87.024330 246.924103,89.024780 253.508942,86.309891 
	C260.419983,83.460526 267.160950,85.505470 272.584991,90.984947 
	C273.125885,91.531342 274.019318,91.728767 274.749115,92.088150 
z"/>
<path fill="#E3E5E6" opacity="1.000000" stroke="none" 
	d="
M295.053009,43.997063 
	C291.737488,43.285645 290.644775,41.322399 290.926971,37.922077 
	C291.255035,33.969738 290.974609,29.966890 291.431213,25.612774 
	C299.614746,25.172972 307.325317,25.106358 315.014343,25.019436 
	C314.992828,24.999126 314.965607,24.946579 314.995300,25.417480 
	C315.038208,31.582783 315.051483,37.277184 314.594604,42.987709 
	C309.359253,43.009880 304.594086,43.015926 299.471375,43.029793 
	C297.760223,43.357437 296.406616,43.677250 295.053009,43.997063 
z"/>
<path fill="#394950" opacity="1.000000" stroke="none" 
	d="
M401.510010,7.826609 
	C405.047302,7.888956 408.131531,8.045319 411.888367,8.235780 
	C411.888367,13.596337 411.888367,18.803215 411.471008,24.599365 
	C403.371704,25.273497 395.689789,25.358353 387.894165,24.958632 
	C387.864685,18.987759 387.948853,13.501463 388.033051,8.015167 
	C392.374359,7.983654 396.715637,7.952139 401.510010,7.826609 
z"/>
<path fill="#3A4850" opacity="1.000000" stroke="none" 
	d="
M315.035828,25.039745 
	C307.325317,25.106358 299.614746,25.172972 291.440735,25.148254 
	C290.977234,19.592489 290.977234,14.128056 290.977234,8.303535 
	C299.066284,8.303535 306.802948,8.303535 314.752441,9.111149 
	C314.988770,14.959089 315.012299,19.999418 315.035828,25.039745 
z"/>
<path fill="#E3E4E6" opacity="1.000000" stroke="none" 
	d="
M387.562439,7.997189 
	C387.948853,13.501463 387.864685,18.987759 387.912201,24.937929 
	C388.043915,25.401804 388.046600,25.457098 387.583496,25.534672 
	C382.411133,25.476650 377.701813,25.341051 373.002869,25.014507 
	C372.952911,24.572929 372.904053,24.320093 373.047791,23.753952 
	C374.364380,22.227652 375.499725,21.012453 376.635040,19.797253 
	C375.133484,19.154758 373.632050,17.985147 372.130310,17.984676 
	C369.400238,17.983822 366.669952,18.677786 363.756836,18.976223 
	C363.573883,18.870657 363.153259,18.831921 363.173950,18.384726 
	C363.127167,14.626153 363.059662,11.314775 362.992157,8.003397 
	C371.025391,7.995335 379.058624,7.987272 387.562439,7.997189 
z"/>
<path fill="#C0C5C8" opacity="1.000000" stroke="none" 
	d="
M295.049377,44.466076 
	C296.406616,43.677250 297.760223,43.357437 299.507446,43.495255 
	C299.932098,63.953136 299.963135,83.953377 299.898865,104.402634 
	C300.193634,107.239655 300.583679,109.627663 300.973755,112.015671 
	C300.097260,112.955322 299.220764,113.894966 298.090790,115.106293 
	C297.227905,114.107773 296.419922,113.172829 295.291504,111.738403 
	C294.967224,108.896469 294.963409,106.554008 294.959595,104.211548 
	C294.988312,84.452728 295.017029,64.693909 295.049377,44.466076 
z"/>
<path fill="#FA908D" opacity="1.000000" stroke="none" 
	d="
M274.802917,91.730743 
	C274.019318,91.728767 273.125885,91.531342 272.584991,90.984947 
	C267.160950,85.505470 260.419983,83.460526 253.508942,86.309891 
	C246.924103,89.024780 240.702011,87.024330 234.450851,86.686417 
	C221.769089,86.000893 209.136398,84.333656 196.500427,82.919830 
	C192.647507,82.488739 188.849960,81.562889 185.235229,80.447044 
	C186.866089,79.842178 188.288788,79.653900 189.711472,79.465622 
	C190.246033,79.430840 190.780609,79.396049 191.721497,79.654221 
	C192.391800,79.849533 192.655792,79.751900 192.919769,79.654259 
	C195.851807,79.353371 198.783829,79.052490 202.453064,79.033051 
	C207.987396,79.528648 212.784531,79.742790 217.867249,80.253494 
	C225.843781,81.708008 233.534698,82.865967 241.567352,84.055412 
	C243.080215,83.929657 244.251389,83.772415 245.721115,83.695442 
	C247.387543,82.904854 248.755386,82.033989 250.123245,81.163132 
	C253.423721,81.114006 256.732574,80.891724 260.022919,81.051483 
	C267.063416,81.393318 272.120270,84.759575 274.802917,91.730743 
z"/>
<path fill="#E5E6E8" opacity="1.000000" stroke="none" 
	d="
M315.014343,25.019436 
	C315.012299,19.999418 314.988770,14.959089 315.019043,9.453724 
	C322.790558,8.669124 330.508209,8.349561 338.681335,8.501883 
	C339.098724,11.914769 339.060669,14.855770 338.680908,17.969770 
	C336.873962,18.467024 335.408752,18.791281 333.805664,19.012012 
	C333.667755,18.908489 333.324707,18.873329 333.081207,18.615391 
	C331.923309,18.254730 331.008942,18.152006 329.812012,18.082644 
	C329.252563,18.364555 328.975677,18.613106 328.529602,18.968544 
	C328.142120,19.238033 327.970978,19.440481 327.617371,19.840981 
	C327.237427,20.330141 327.087067,20.661095 326.968079,20.991814 
	C326.999481,20.991579 326.964050,20.939775 326.709412,21.183540 
	C326.223755,22.818058 325.992767,24.208807 325.339539,25.617489 
	C321.600098,25.405806 318.282837,25.176191 314.965607,24.946579 
	C314.965607,24.946579 314.992828,24.999126 315.014343,25.019436 
z"/>
<path fill="#3E4951" opacity="1.000000" stroke="none" 
	d="
M339.022614,17.796772 
	C339.060669,14.855770 339.098724,11.914769 339.160583,8.532181 
	C346.808380,8.050976 354.432404,8.011357 362.524292,7.987568 
	C363.059662,11.314775 363.127167,14.626153 362.786133,18.304920 
	C360.400208,18.579786 358.422821,18.487261 356.070831,18.377207 
	C356.070831,21.165684 356.070831,23.238102 355.668274,25.282490 
	C354.214264,25.087578 353.162781,24.920696 352.083466,24.413368 
	C351.300262,22.529274 350.544861,20.985632 349.694733,19.248400 
	C347.877930,21.810205 346.399597,23.894791 344.687622,26.061956 
	C344.164429,26.345793 343.995819,26.621120 343.976654,26.980751 
	C344.005157,26.990986 343.984863,26.933933 343.677124,26.846317 
	C342.895203,25.836632 342.421082,24.914562 342.013733,23.639519 
	C343.184601,22.128338 344.288696,20.970131 345.528229,19.669859 
	C343.211121,19.002722 341.116852,18.399746 339.022614,17.796772 
z"/>
<path fill="#FA6F6B" opacity="1.000000" stroke="none" 
	d="
M217.581650,79.956932 
	C212.784531,79.742790 207.987396,79.528648 202.887650,78.988861 
	C212.478195,70.901688 223.836899,69.058693 235.946960,70.605988 
	C237.836487,70.847404 239.609711,71.998985 241.585541,73.168152 
	C241.583084,74.900917 240.914337,76.439507 241.386429,77.439545 
	C242.426315,79.642303 244.041885,81.573288 245.422546,83.615173 
	C244.251389,83.772415 243.080215,83.929657 241.475372,83.710274 
	C239.729111,81.447823 238.502319,79.494865 237.088547,77.688255 
	C232.074600,71.281120 221.119019,72.577156 217.581650,79.956932 
z"/>
<path fill="#36474D" opacity="1.000000" stroke="none" 
	d="
M294.503326,104.123215 
	C294.963409,106.554008 294.967224,108.896469 294.973267,111.592316 
	C294.543427,112.194298 294.101654,112.673340 293.680817,112.655632 
	C289.753510,112.490402 285.829742,112.239922 281.333923,111.702599 
	C279.488159,111.596024 278.213409,111.800972 276.938690,112.005920 
	C271.847504,109.327705 266.822693,114.342285 260.973694,112.093628 
	C259.452332,112.059929 258.692841,112.069710 257.933380,112.079498 
	C257.632599,111.968102 257.384399,111.785278 257.151306,110.938789 
	C260.691071,108.911201 264.268250,107.475861 268.124084,106.303360 
	C271.686676,106.053535 274.970642,105.540894 278.505768,105.003830 
	C279.165649,104.709244 279.574341,104.439079 279.983063,104.168907 
	C284.671051,104.124229 289.359070,104.079559 294.503326,104.123215 
z"/>
<path fill="#FA7F7B" opacity="1.000000" stroke="none" 
	d="
M189.406952,79.330795 
	C188.288788,79.653900 186.866089,79.842178 185.051636,80.089890 
	C184.659866,80.149330 184.454605,80.128151 184.352707,80.120209 
	C185.681564,77.930946 184.368347,77.198189 182.596893,76.105675 
	C180.984421,75.111176 179.886932,73.281654 178.562439,71.820213 
	C178.936584,71.158432 179.310745,70.496658 179.684891,69.834877 
	C182.863144,70.433365 186.041412,71.031853 189.219666,71.630325 
	C188.472275,73.610283 187.724899,75.590240 186.843216,77.925972 
	C187.190567,78.121231 188.146484,78.658592 189.406952,79.330795 
z"/>
<path fill="#D36062" opacity="1.000000" stroke="none" 
	d="
M180.461487,92.389404 
	C181.720383,93.213730 182.974762,94.366280 183.953476,95.718376 
	C184.891693,97.014519 185.543854,98.517731 186.855286,100.310760 
	C189.163284,105.881538 184.555374,103.147102 183.011551,104.217056 
	C183.011551,104.217056 182.557877,104.088974 182.347183,103.985657 
	C181.411240,102.131447 176.832993,102.695992 179.733673,98.956375 
	C180.327820,98.777924 180.521591,98.690567 180.512741,98.636337 
	C180.476395,98.413872 180.378326,98.201508 180.302979,97.985420 
	C180.314133,96.258568 180.325287,94.531715 180.461487,92.389404 
z"/>
<path fill="#CDCBD9" opacity="1.000000" stroke="none" 
	d="
M245.721115,83.695442 
	C244.041885,81.573288 242.426315,79.642303 241.386429,77.439545 
	C240.914337,76.439507 241.583084,74.900917 241.918823,73.325218 
	C244.666138,75.544334 247.228973,78.044861 249.957520,80.854256 
	C248.755386,82.033989 247.387543,82.904854 245.721115,83.695442 
z"/>
<path fill="#BB5759" opacity="1.000000" stroke="none" 
	d="
M278.254608,105.028244 
	C274.970642,105.540894 271.686676,106.053535 268.170654,105.983551 
	C268.482574,104.354149 269.026520,103.307388 269.570465,102.260628 
	C271.640381,102.204399 273.710266,102.148170 276.215973,102.095322 
	C277.102173,102.523361 277.552551,102.948013 278.103577,103.933014 
	C278.221008,104.671661 278.237793,104.849960 278.254608,105.028244 
z"/>
<path fill="#444E56" opacity="1.000000" stroke="none" 
	d="
M278.505768,105.003830 
	C278.237793,104.849960 278.221008,104.671661 278.223328,104.225578 
	C278.636688,103.957298 279.030945,103.956818 279.704102,104.062622 
	C279.574341,104.439079 279.165649,104.709244 278.505768,105.003830 
z"/>
<path fill="#FA7F7B" opacity="1.000000" stroke="none" 
	d="
M192.712082,79.560608 
	C192.655792,79.751900 192.391800,79.849533 192.103378,79.788620 
	C192.078934,79.630074 192.504395,79.466949 192.712082,79.560608 
z"/>
<path fill="#FA908D" opacity="1.000000" stroke="none" 
	d="
M180.138733,98.176712 
	C180.378326,98.201508 180.476395,98.413872 180.512741,98.636337 
	C180.521591,98.690567 180.327820,98.777924 180.038788,98.853371 
	C179.891739,98.693802 179.933121,98.530899 180.138733,98.176712 
z"/>
<path fill="#394950" opacity="1.000000" stroke="none" 
	d="
M301.244629,111.997093 
	C300.583679,109.627663 300.193634,107.239655 300.367798,104.414734 
	C334.951691,104.006317 368.971405,104.034821 402.995667,104.302292 
	C403.000214,104.541245 403.178772,104.984650 403.087280,105.394638 
	C402.982330,107.204407 402.968933,108.604172 402.955536,110.003944 
	C400.339508,110.980919 397.775330,112.542664 395.093781,112.780235 
	C392.047394,113.050133 388.896118,112.135925 385.341248,111.662903 
	C383.931458,111.587547 382.970825,111.585747 382.010193,111.583946 
	C372.089508,113.489250 361.821045,110.184189 351.942719,113.617348 
	C350.753357,114.030716 348.894104,112.516663 347.551300,111.978508 
	C332.192902,111.978508 316.854187,111.978508 301.244629,111.997093 
z"/>
<path fill="#504D5B" opacity="1.000000" stroke="none" 
	d="
M269.629181,101.826439 
	C269.026520,103.307388 268.482574,104.354149 267.892029,105.720718 
	C264.268250,107.475861 260.691071,108.911201 257.044128,110.731255 
	C256.472198,111.348770 255.970016,111.581581 255.189621,111.855988 
	C253.793427,109.941154 252.675446,107.984734 251.193604,105.655579 
	C250.293137,104.186981 249.756516,103.091118 249.219894,101.995255 
	C248.539734,96.914848 249.150314,91.854729 254.216202,89.693390 
	C257.153412,88.440247 261.464752,88.400299 264.406708,89.622353 
	C269.177124,91.603912 270.163147,96.439789 269.629181,101.826439 
M255.080627,93.310799 
	C251.686691,97.916084 251.871185,102.024025 255.585663,104.555618 
	C258.925049,106.831573 263.924561,105.782570 265.189911,101.849907 
	C265.925964,99.562271 265.498077,96.162521 264.214935,94.136551 
	C262.315704,91.137856 258.880402,91.231293 255.080627,93.310799 
z"/>
<path fill="#9DB3A1" opacity="1.000000" stroke="none" 
	d="
M137.184601,112.403107 
	C141.856949,111.940666 146.485779,111.490852 151.586227,111.037170 
	C149.447723,111.915268 146.882858,113.003349 144.208084,113.591141 
	C142.895599,113.879562 141.379135,113.239792 139.203278,112.904846 
	C137.984772,112.668831 137.517975,112.548050 137.051193,112.427269 
	C137.051193,112.427269 137.141083,112.415726 137.184601,112.403107 
z"/>
<path fill="#B3BFBE" opacity="1.000000" stroke="none" 
	d="
M403.217712,110.214706 
	C402.968933,108.604172 402.982330,107.204407 403.452972,105.396225 
	C404.887512,104.987404 405.864868,104.986977 406.842194,104.986557 
	C407.232849,106.737015 407.623505,108.487473 408.124481,110.614326 
	C406.416931,112.761383 404.631256,114.261276 403.217712,110.214706 
z"/>
<path fill="#A2B7A6" opacity="1.000000" stroke="none" 
	d="
M277.155579,112.284851 
	C278.213409,111.800972 279.488159,111.596024 280.960083,111.688431 
	C279.895691,112.178444 278.634064,112.371109 277.155579,112.284851 
z"/>
<path fill="#B5C1BC" opacity="1.000000" stroke="none" 
	d="
M382.059753,111.957230 
	C382.970825,111.585747 383.931458,111.587547 385.104492,111.810379 
	C384.247742,112.131104 383.178528,112.230812 382.059753,111.957230 
z"/>
<path fill="#36474D" opacity="1.000000" stroke="none" 
	d="
M137.055542,112.771820 
	C137.517975,112.548050 137.984772,112.668831 138.786346,112.936020 
	C138.767258,113.585686 138.413391,114.088936 138.059525,114.592178 
	C137.726318,114.100243 137.393112,113.608315 137.055542,112.771820 
z"/>
<path fill="#B9C2C0" opacity="1.000000" stroke="none" 
	d="
M46.997726,112.281128 
	C47.506550,112.142143 48.163101,112.277390 48.861679,112.677856 
	C48.317619,112.813843 47.731541,112.684601 46.997726,112.281128 
z"/>
<path fill="#B6C1BD" opacity="1.000000" stroke="none" 
	d="
M258.080048,112.359146 
	C258.692841,112.069710 259.452332,112.059929 260.588257,112.113312 
	C260.052032,112.330589 259.139374,112.484695 258.080048,112.359146 
z"/>
<path fill="#36474D" opacity="1.000000" stroke="none" 
	d="
M62.993874,113.004723 
	C63.109123,113.063820 63.230770,113.117805 63.352413,113.171783 
	C63.262169,113.212357 63.171928,113.252930 63.046341,113.139984 
	C63.010998,112.986458 63.000263,112.999603 62.993874,113.004723 
z"/>
<path fill="#4D505B" opacity="1.000000" stroke="none" 
	d="
M183.302414,104.446533 
	C184.555374,103.147102 189.163284,105.881538 187.237732,100.358536 
	C187.638123,93.221451 190.001038,89.826035 195.181198,88.393913 
	C199.837112,87.106735 203.376953,88.879059 207.625992,95.209785 
	C207.900391,96.935585 207.989105,97.983398 208.077820,99.031219 
	C207.964706,100.095421 207.851593,101.159615 207.439026,102.760078 
	C206.810562,104.169930 206.481522,105.043518 206.152481,105.917107 
	C202.638611,106.249489 200.518097,110.901024 196.238144,109.021400 
	C194.476700,108.247841 192.527664,107.912971 190.696609,107.283569 
	C188.311829,106.463829 185.959549,105.549591 183.302414,104.446533 
M191.435181,101.600677 
	C195.222458,106.405762 199.433319,107.126617 202.595261,103.405922 
	C204.886871,100.709351 205.734589,97.284142 203.024719,94.883453 
	C201.141144,93.214760 197.653564,92.037033 195.281738,92.536270 
	C191.338852,93.366219 190.223846,96.917755 191.435181,101.600677 
z"/>
<path fill="#C85656" opacity="1.000000" stroke="none" 
	d="
M206.607498,105.911919 
	C206.481522,105.043518 206.810562,104.169930 207.386978,103.158157 
	C210.400391,102.692284 213.163696,102.111389 215.932907,102.081696 
	C226.702454,101.966209 237.473862,102.025734 248.732239,102.007698 
	C249.756516,103.091118 250.293137,104.186981 250.831024,105.593628 
	C236.242371,105.905190 221.652451,105.905960 206.607498,105.911919 
z"/>
<path fill="#E6E8EA" opacity="1.000000" stroke="none" 
	d="
M388.046600,25.457098 
	C388.046600,25.457098 388.043915,25.401804 388.025879,25.422506 
	C395.689789,25.358353 403.371704,25.273497 411.505341,25.062284 
	C411.972778,27.321642 411.988525,29.707352 412.006409,32.538387 
	C412.003967,34.965282 411.923737,36.950245 412.012482,38.927628 
	C412.146423,41.912308 410.737976,43.195160 407.026184,43.005882 
	C405.164124,43.008915 404.108337,43.007851 402.579865,43.006111 
	C397.313965,42.958542 392.520813,42.911648 387.707520,42.406151 
	C387.807129,36.450729 387.926880,30.953913 388.046600,25.457098 
z"/>
<path fill="#C0C5C9" opacity="1.000000" stroke="none" 
	d="
M403.052582,43.006786 
	C404.108337,43.007851 405.164124,43.008915 406.616150,43.004436 
	C407.031464,63.019810 407.050537,83.040726 407.035248,103.529053 
	C406.988098,104.163666 406.975342,104.330872 406.902374,104.742310 
	C405.864868,104.986977 404.887512,104.987404 403.544495,104.986237 
	C403.178772,104.984650 403.000214,104.541245 402.976562,103.829559 
	C402.986115,83.080841 403.019348,63.043812 403.052582,43.006786 
z"/>
<path fill="#D95958" opacity="1.000000" stroke="none" 
	d="
M208.540039,99.016426 
	C207.989105,97.983398 207.900391,96.935585 207.795090,95.496170 
	C214.915817,95.069710 222.055817,94.900780 229.189529,95.044579 
	C234.415314,95.149925 239.542938,95.398094 242.708511,89.605621 
	C243.220764,89.865616 243.733002,90.125603 244.245239,90.385590 
	C244.136688,91.765366 244.514496,93.990334 243.836487,94.380478 
	C240.685394,96.193741 237.320206,98.519348 233.887512,98.782646 
	C225.635376,99.415611 217.302521,98.996368 208.540039,99.016426 
z"/>
<path fill="#F9F9F9" opacity="1.000000" stroke="none" 
	d="
M402.579865,43.006111 
	C403.019348,63.043812 402.986115,83.080841 402.971985,103.590599 
	C368.971405,104.034821 334.951691,104.006317 300.463074,103.965714 
	C299.963135,83.953377 299.932098,63.953136 299.864990,43.487431 
	C304.594086,43.015926 309.359253,43.009880 315.054047,43.061604 
	C323.648773,43.076580 331.313873,43.033787 339.448975,42.997559 
	C347.714264,42.956520 355.509521,42.908916 363.744385,42.964600 
	C372.031860,43.000175 379.879730,42.932465 387.727631,42.864754 
	C392.520813,42.911648 397.313965,42.958542 402.579865,43.006111 
z"/>
<path fill="#3C484F" opacity="1.000000" stroke="none" 
	d="
M338.978973,42.990993 
	C331.313873,43.033787 323.648773,43.076580 315.524231,43.045475 
	C315.051483,37.277184 315.038208,31.582783 314.995300,25.417480 
	C318.282837,25.176191 321.600098,25.405806 325.732269,25.748833 
	C327.076019,25.723976 327.604797,25.585705 328.484924,25.568569 
	C329.795563,26.187450 330.754852,26.685194 332.375549,27.526106 
	C330.170776,27.931313 328.781647,28.186621 327.392487,28.441929 
	C327.310974,28.966616 327.229462,29.491302 327.147919,30.015987 
	C328.927673,30.536594 331.383057,32.021458 332.332062,31.356480 
	C333.832916,30.304827 334.324219,27.812424 335.700378,25.944469 
	C341.542511,26.262936 338.080780,30.516008 339.117950,33.215332 
	C339.029114,36.796051 339.004059,39.893520 338.978973,42.990993 
z"/>
<path fill="#3B4850" opacity="1.000000" stroke="none" 
	d="
M387.707520,42.406151 
	C379.879730,42.932465 372.031860,43.000175 363.764465,42.515984 
	C363.148865,38.660915 362.952759,35.357750 363.129028,32.024738 
	C363.709473,30.027033 363.917603,28.059170 364.430328,25.938358 
	C366.648071,23.509893 368.225006,23.506235 369.157745,26.550690 
	C369.627472,28.083847 369.859283,29.689901 370.311890,31.448233 
	C371.035126,31.476854 371.645111,31.320234 372.297791,30.739666 
	C372.557800,28.612295 372.775177,26.908873 372.992523,25.205452 
	C377.701813,25.341051 382.411133,25.476650 387.583496,25.534672 
	C387.926880,30.953913 387.807129,36.450729 387.707520,42.406151 
z"/>
<path fill="#D76C6A" opacity="1.000000" stroke="none" 
	d="
M364.125671,26.091305 
	C363.917603,28.059170 363.709473,30.027033 362.850159,31.993818 
	C361.073761,31.995630 359.948547,31.998524 358.555664,31.823801 
	C357.548920,29.534298 356.809875,27.422409 356.070831,25.310520 
	C356.070831,23.238102 356.070831,21.165684 356.070831,18.377207 
	C358.422821,18.487261 360.400208,18.579786 362.765442,18.752117 
	C363.153259,18.831921 363.573883,18.870657 363.881653,19.223358 
	C364.504456,20.029158 364.819519,20.482260 364.767395,21.011200 
	C364.308746,22.755127 364.217194,24.423216 364.125671,26.091305 
z"/>
<path fill="#EF6C66" opacity="1.000000" stroke="none" 
	d="
M364.430298,25.938358 
	C364.217194,24.423216 364.308746,22.755127 364.997925,21.173508 
	C365.956848,21.481155 366.318054,21.702335 366.679291,21.923515 
	C367.988068,16.598909 371.668213,19.571098 374.020386,19.313414 
	C373.594971,21.065346 373.230774,22.565199 372.866577,24.065054 
	C372.904053,24.320093 372.952911,24.572929 373.002869,25.014507 
	C372.775177,26.908873 372.557800,28.612295 371.952759,30.734043 
	C371.109619,31.189245 370.654144,31.226118 370.198700,31.262993 
	C369.859283,29.689901 369.627472,28.083847 369.157745,26.550690 
	C368.225006,23.506235 366.648071,23.509893 364.430298,25.938358 
z"/>
<path fill="#9B8C91" opacity="1.000000" stroke="none" 
	d="
M373.047791,23.753952 
	C373.230774,22.565199 373.594971,21.065346 374.020386,19.313414 
	C371.668213,19.571098 367.988068,16.598909 366.679291,21.923515 
	C366.318054,21.702335 365.956848,21.481155 365.365082,21.097668 
	C364.819519,20.482260 364.504456,20.029158 364.064575,19.328922 
	C366.669952,18.677786 369.400238,17.983822 372.130310,17.984676 
	C373.632050,17.985147 375.133484,19.154758 376.635040,19.797253 
	C375.499725,21.012453 374.364380,22.227652 373.047791,23.753952 
z"/>
<path fill="#C8CBDD" opacity="1.000000" stroke="none" 
	d="
M217.867249,80.253494 
	C221.119019,72.577156 232.074600,71.281120 237.088547,77.688255 
	C238.502319,79.494865 239.729111,81.447823 241.133652,83.678787 
	C233.534698,82.865967 225.843781,81.708008 217.867249,80.253494 
z"/>
<path fill="#CB7373" opacity="1.000000" stroke="none" 
	d="
M339.181732,32.732086 
	C338.080780,30.516008 341.542511,26.262936 335.457306,25.850140 
	C334.485565,23.532558 334.214569,21.324045 333.943542,19.115536 
	C335.408752,18.791281 336.873962,18.467024 338.680908,17.969769 
	C341.116852,18.399746 343.211121,19.002722 345.528229,19.669859 
	C344.288696,20.970131 343.184601,22.128338 341.724304,23.795668 
	C340.614471,27.594076 339.426453,31.117062 345.135864,31.160328 
	C345.510651,30.888636 345.727356,30.470900 345.944031,30.053160 
	C345.623230,30.030495 345.302429,30.007833 344.676880,29.950924 
	C344.243011,28.922426 344.113953,27.928179 343.984863,26.933933 
	C343.984863,26.933933 344.005157,26.990986 344.345276,26.988907 
	C345.417603,27.005219 346.149811,27.023611 347.010742,27.250521 
	C347.354279,27.720865 347.625336,27.895370 347.970581,27.994015 
	C347.988556,28.005472 348.014404,28.039169 348.064026,28.379330 
	C349.345245,29.523483 350.576843,30.327478 351.426270,31.086960 
	C347.089966,31.605661 343.135834,32.168873 339.181732,32.732086 
z"/>
<path fill="#D66968" opacity="1.000000" stroke="none" 
	d="
M333.805664,19.012011 
	C334.214569,21.324045 334.485565,23.532558 334.999664,25.835403 
	C334.324219,27.812424 333.832916,30.304827 332.332062,31.356480 
	C331.383057,32.021458 328.927673,30.536594 327.147919,30.015987 
	C327.229462,29.491302 327.310974,28.966616 327.392487,28.441929 
	C328.781647,28.186621 330.170776,27.931313 332.375549,27.526106 
	C330.754852,26.685194 329.795563,26.187450 328.366272,25.266567 
	C327.585510,23.542208 327.274780,22.240992 326.964050,20.939775 
	C326.964050,20.939775 326.999481,20.991579 327.212524,20.849802 
	C327.566010,20.366274 327.706512,20.024523 327.846985,19.682772 
	C327.970978,19.440481 328.142120,19.238033 328.834900,19.000757 
	C329.512695,18.932220 329.716034,18.938358 330.343628,18.961124 
	C331.620117,18.942945 332.472412,18.908138 333.324707,18.873329 
	C333.324707,18.873329 333.667755,18.908489 333.805664,19.012011 
z"/>
<path fill="#9D969A" opacity="1.000000" stroke="none" 
	d="
M326.709412,21.183540 
	C327.274780,22.240992 327.585510,23.542208 328.014923,25.145428 
	C327.604797,25.585705 327.076019,25.723976 326.154480,25.730904 
	C325.992767,24.208807 326.223755,22.818058 326.709412,21.183540 
z"/>
<path fill="#CB7373" opacity="1.000000" stroke="none" 
	d="
M333.081207,18.615391 
	C332.472412,18.908138 331.620117,18.942945 330.389648,18.737953 
	C330.011444,18.498152 330.094543,18.049282 330.094543,18.049282 
	C331.008942,18.152006 331.923309,18.254730 333.081207,18.615391 
z"/>
<path fill="#9D969A" opacity="1.000000" stroke="none" 
	d="
M327.617371,19.840981 
	C327.706512,20.024523 327.566010,20.366274 327.181122,20.850037 
	C327.087067,20.661095 327.237427,20.330141 327.617371,19.840981 
z"/>
<path fill="#9D969A" opacity="1.000000" stroke="none" 
	d="
M329.812012,18.082644 
	C330.094543,18.049282 330.011444,18.498152 329.965424,18.721325 
	C329.716034,18.938358 329.512695,18.932220 329.004089,18.893871 
	C328.975677,18.613106 329.252563,18.364555 329.812012,18.082644 
z"/>
<path fill="#D76C6A" opacity="1.000000" stroke="none" 
	d="
M347.952637,27.982555 
	C347.625336,27.895370 347.354279,27.720865 346.871887,26.985378 
	C346.043274,26.334269 345.482239,26.156820 344.921234,25.979376 
	C346.399597,23.894791 347.877930,21.810205 349.694733,19.248400 
	C350.544861,20.985632 351.300262,22.529274 352.082886,24.798889 
	C352.740570,27.675459 353.370972,29.826056 354.002563,31.986046 
	C354.003784,31.995440 353.991699,31.995020 353.731110,31.881863 
	C352.955048,31.537495 352.439545,31.306282 351.900787,31.100666 
	C351.877502,31.126261 351.808441,31.131470 351.808441,31.131472 
	C350.576843,30.327478 349.345245,29.523483 348.315552,28.247513 
	C348.725037,27.193098 348.932556,26.610659 349.140106,26.028219 
	C348.812744,25.932953 348.485382,25.837687 348.158020,25.742422 
	C348.089539,26.489132 348.021088,27.235844 347.952637,27.982555 
z"/>
<path fill="#D26F6E" opacity="1.000000" stroke="none" 
	d="
M354.001404,31.976650 
	C353.370972,29.826056 352.740570,27.675459 352.110718,25.139339 
	C353.162781,24.920696 354.214264,25.087578 355.668274,25.282490 
	C356.809875,27.422409 357.548920,29.534298 358.363464,32.071968 
	C356.959808,32.324051 355.480591,32.150349 354.001404,31.976650 
z"/>
<path fill="#D26F6E" opacity="1.000000" stroke="none" 
	d="
M344.977783,31.014286 
	C339.426453,31.117062 340.614471,27.594076 341.657532,24.148642 
	C342.421082,24.914562 342.895203,25.836632 343.677124,26.846317 
	C344.113953,27.928179 344.243011,28.922426 344.679077,30.208288 
	C344.983307,30.671362 344.980560,30.842823 344.977783,31.014286 
z"/>
<path fill="#D26F6E" opacity="1.000000" stroke="none" 
	d="
M344.687622,26.061954 
	C345.482239,26.156820 346.043274,26.334269 346.743164,26.776859 
	C346.149811,27.023611 345.417603,27.005219 344.316772,26.978672 
	C343.995819,26.621120 344.164429,26.345793 344.687622,26.061954 
z"/>
<path fill="#D0D7E4" opacity="1.000000" stroke="none" 
	d="
M255.398804,93.083954 
	C258.880402,91.231293 262.315704,91.137856 264.214935,94.136551 
	C265.498077,96.162521 265.925964,99.562271 265.189911,101.849907 
	C263.924561,105.782570 258.925049,106.831573 255.585663,104.555618 
	C251.871185,102.024025 251.686691,97.916084 255.398804,93.083954 
M261.997864,98.482178 
	C260.667450,97.338463 259.337006,96.194740 258.006561,95.051018 
	C257.439087,95.485535 256.871613,95.920044 256.304108,96.354561 
	C256.912537,98.054688 257.520996,99.754814 258.129425,101.454933 
	C259.411682,100.722519 260.693909,99.990105 261.997864,98.482178 
z"/>
<path fill="#CFD6E4" opacity="1.000000" stroke="none" 
	d="
M191.285828,101.231186 
	C190.223846,96.917755 191.338852,93.366219 195.281738,92.536270 
	C197.653564,92.037033 201.141144,93.214760 203.024719,94.883453 
	C205.734589,97.284142 204.886871,100.709351 202.595261,103.405922 
	C199.433319,107.126617 195.222458,106.405762 191.285828,101.231186 
M200.269241,96.968681 
	C198.108627,95.453392 196.060486,95.405724 195.272614,98.210960 
	C195.003418,99.169426 196.322891,100.574074 196.916504,101.774864 
	C198.158340,100.383133 199.400192,98.991402 200.269241,96.968681 
z"/>
<path fill="#E3E5E7" opacity="1.000000" stroke="none" 
	d="
M354.002594,31.986044 
	C355.480591,32.150349 356.959808,32.324051 358.631165,32.249584 
	C359.948547,31.998524 361.073761,31.995630 362.477814,32.023659 
	C362.952759,35.357750 363.148865,38.660915 363.324860,42.412697 
	C355.509521,42.908916 347.714264,42.956520 339.448975,42.997559 
	C339.004059,39.893520 339.029114,36.796051 339.117950,33.215332 
	C343.135834,32.168873 347.089966,31.605661 351.426270,31.086960 
	C351.808441,31.131470 351.877502,31.126261 351.910492,31.381668 
	C352.626221,31.756390 353.308960,31.875706 353.991699,31.995022 
	C353.991699,31.995020 354.003784,31.995440 354.002594,31.986044 
z"/>
<path fill="#9B8C91" opacity="1.000000" stroke="none" 
	d="
M370.311890,31.448231 
	C370.654144,31.226118 371.109619,31.189245 371.910095,31.157993 
	C371.645111,31.320234 371.035126,31.476854 370.311890,31.448231 
z"/>
<path fill="#D76C6A" opacity="1.000000" stroke="none" 
	d="
M345.135864,31.160328 
	C344.980560,30.842823 344.983307,30.671362 344.983856,30.242538 
	C345.302429,30.007833 345.623230,30.030495 345.944031,30.053160 
	C345.727356,30.470900 345.510651,30.888636 345.135864,31.160328 
z"/>
<path fill="#D26F6E" opacity="1.000000" stroke="none" 
	d="
M347.970581,27.994013 
	C348.021088,27.235844 348.089539,26.489132 348.158020,25.742422 
	C348.485382,25.837687 348.812744,25.932953 349.140106,26.028219 
	C348.932556,26.610659 348.725037,27.193098 348.265930,27.907352 
	C348.014404,28.039169 347.988556,28.005472 347.970581,27.994013 
z"/>
<path fill="#CB7373" opacity="1.000000" stroke="none" 
	d="
M353.731110,31.881865 
	C353.308960,31.875706 352.626221,31.756390 351.933777,31.356071 
	C352.439545,31.306282 352.955048,31.537495 353.731110,31.881865 
z"/>
<path fill="#BBC3D8" opacity="1.000000" stroke="none" 
	d="
M261.987000,98.869934 
	C260.693909,99.990105 259.411682,100.722519 258.129425,101.454941 
	C257.520996,99.754814 256.912537,98.054688 256.304108,96.354561 
	C256.871613,95.920044 257.439087,95.485535 258.006561,95.051018 
	C259.337006,96.194740 260.667450,97.338463 261.987000,98.869934 
z"/>
<path fill="#B9C0D5" opacity="1.000000" stroke="none" 
	d="
M200.455627,97.284180 
	C199.400192,98.991402 198.158340,100.383133 196.916504,101.774864 
	C196.322891,100.574074 195.003418,99.169426 195.272614,98.210960 
	C196.060486,95.405724 198.108627,95.453392 200.455627,97.284180 
z"/>
</svg>