<?xml version="1.0" encoding="utf-8"?>
<!-- Generator: Adobe Illustrator 26.2.1, SVG Export Plug-In . SVG Version: 6.00 Build 0)  -->
<svg version="1.1" id="Layer_1" xmlns="http://www.w3.org/2000/svg" xmlns:xlink="http://www.w3.org/1999/xlink" x="0px" y="0px"
	 viewBox="0 0 309.5 132.7" style="enable-background:new 0 0 309.5 132.7;" xml:space="preserve">
<style type="text/css">
	.st0{fill:#3D0084;}
	.st1{fill:#F200FF;}
	.st2{opacity:0.33;}
	.st3{fill:#FFCE00;}
	.st4{opacity:0.57;}
	.st5{fill:#474757;}
	.st6{opacity:0.13;}
	.st7{fill:#32323F;}
	.st8{fill:#FFFFFF;}
	.st9{fill:#DDDDDD;}
	.st10{fill:#BAC0D8;}
	.st11{fill:#ACAFBC;}
	.st12{clip-path:url(#SVGID_00000167367187320156568140000006001826487137679261_);}
	.st13{fill:#AAFFF9;}
	.st14{clip-path:url(#SVGID_00000147934923297224655550000006789414620298936506_);}
	.st15{fill:#ABFEF9;}
</style>
<g id="Layer_1_00000172420408992726857860000002922618169880530058_">
	<g id="Layer_2_00000104677501208473528040000017177914661483840695_">
		<g id="SkullCar_Free">
			<g id="Basic_DarkRed">
				<g id="premium-water">
					<path class="st0" d="M219.2,37.7h34.9c27.3,0.1,49.3,15.7,49.2,45.4v19.4c3.5,0,6.3,3.1,6.3,6.9s-2.8,6.9-6.3,6.9l-225-0.8
						L6,102.8c-3.4-0.2-6.1-3.1-6-6.5c0-3.7,2.7-6.6,6-6.6V46.9c0-8.6,6.5-15.5,14.3-15.5h2.2c32.9,0.2,56.1-8.1,84.9-23.8l6.2-3.4
						c3.5-1.8,7.4-3,11.3-3.5c6.4-0.6,50.7,1.6,50.7,1.6s14-2,21.5,11.1s22.7,25,22.7,25"/>
					<path class="st1" d="M302.7,79l-12-2.4L11.9,67.3l-3.8,0.6L8,69.5L24.8,70l-3.2,0.6L7.9,70.2l-0.1,0.9l10,0.3l-4,0.7l-6-0.2
						l-0.1,0.9l2.1,0.1l-2.2,0.4l-0.1,1.5l23,0.8l-4.9,1.2L7.5,76.1l-0.1,1l15.1,0.5l-6,1.5l-9.1-0.3l-0.1,1l6,0.2l-6.1,1.5
						l-0.1,1.5l0.7-0.2l31,1l-6.9,2.3L6.9,85.2l-0.1,1L29.4,87l-8.5,2.9L6.6,89.4l-0.1,1l11.6,0.4L7.3,94.4l-1,0l-0.1,2.5l3.6-1.2
						L52,97l-9.3,4.8l-12.1-0.4l-0.1,1.2l10,0.3l-8.4,4.4l5.5,0.2l8.2-4.4l47.7,1.6l-4.5,4.7l5.2,0.2l4.3-4.5l47.9,1.6l-0.4,4.6
						l5.1,0.2l0.2-4.6l47.9,1.6l3.8,4.9l5.2,0.2l-3.9-4.8l47.7,1.6l7.6,4.9l5.5,0.2l-7.8-4.9l44.5,1.5l0.2-3.3l-7.7-3.3l7.9,0.3
						l0.1-1.1l-10.8-0.4l-10.3-4.4l22.2,0.9l0.1-1l-24.9-1l-8-3.5l33,1.1l-0.1-2.1l-5.4-1.7l5.5,0.2l-0.1-1l-8.6-0.3l-7.1-2.3
						l15.6,0.5l0.1-1l-18.9-0.6l-5.8-1.9l24.7,0.8l-0.1-1.6l-2.7-0.7l2.7,0.1l-0.1-0.9l-6.3-0.2l-4.8-1.3l11.4,0.4l-0.1-0.9
						l-14.9-0.5l-3.9-1l18.9,0.4L302.7,79z M289.2,77.4l2.9,0.7l-18.5-0.6l-2.5-0.7L289.2,77.4z M194.2,95.9l-2.6-3.3l34.9,1.2
						l5.3,3.4L194.2,95.9z M233.4,98.3l6.6,4.2l-41.6-1.4l-3.3-4.1L233.4,98.3z M204.3,79.4l1.7,1.2l-24.7-0.8l-0.9-1.2L204.3,79.4z
						 M179.8,77.7l-0.8-0.9l22.2,0.8l1.4,0.9L179.8,77.7z M210.2,80.7l-1.9-1.2l23.5,0.8l2.8,1.2L210.2,80.7z M236.7,82.5l3.5,1.5
						L214,83.1l-2.4-1.5L236.7,82.5z M233.9,79.5l-2.3-0.9l21.5,0.7l3.1,1L233.9,79.5z M229.3,77.6l-1.9-0.8l20.2,0.7l2.5,0.8
						L229.3,77.6z M229.5,79.4l-22.7-0.8l-1.6-0.9l21.9,0.7L229.5,79.4z M207.6,81.5l2.2,1.4l-26.5-0.9l-1.1-1.4L207.6,81.5z
						 M211.3,84l2.8,1.8l-28.7-1l-1.4-1.7L211.3,84z M215.6,86.8L219,89l-31.2-1l-1.7-2.1L215.6,86.8z M220.5,90l4.2,2.7l-34.1-1.1
						l-2.1-2.6L220.5,90z M225,90.1l31.6,1.1l6.4,2.8l-33.7-1.1L225,90.1z M223.5,89.1l-3.5-2.2l29.1,1l5.2,2.3L223.5,89.1z
						 M218.4,85.9l-2.8-1.8l27,0.9l4.2,1.8L218.4,85.9z M244.7,84.2l-3.6-1.5l24.7,0.8l4.7,1.5L244.7,84.2z M239,81.7l-2.9-1.2
						l22.9,0.8l3.8,1.3L239,81.7z M261,80.4l-3.1-1l21,0.7l3.8,1L261,80.4z M254.9,78.5l-2.5-0.8l19.7,0.6l3.1,0.8L254.9,78.5z
						 M266.1,76.7l2.4,0.7l-19-0.6l-2-0.6L266.1,76.7z M242.8,75.9l1.9,0.6l-19.5-0.7l-1.5-0.6L242.8,75.9z M225.1,77.5l-21.2-0.7
						l-1.3-0.8l20.6,0.7L225.1,77.5z M219.6,75.1l1.5,0.6L201.2,75l-1-0.6L219.6,75.1z M199.9,76.6l-21.5-0.7l-0.5-0.7l21,0.7
						L199.9,76.6z M196.3,74.3l1,0.6l-20.3-0.7l-0.5-0.6L196.3,74.3z M106.3,71.3L126,72l-0.6,0.6l-20.3-0.7L106.3,71.3z
						 M103.7,72.7l21,0.7l-0.7,0.7l-21.5-0.7L103.7,72.7z M68,91.7l5.7-3l34.9,1.2l-3.1,3.1L68,91.7z M104.4,93.9l-3.8,3.9L59,96.4
						l7.2-3.8L104.4,93.9z M75.4,87.7l4.6-2.4l32,1.1l-2.4,2.5L75.4,87.7z M49.1,72.5l21.5,0.7L68.1,74l-22.2-0.8L49.1,72.5z
						 M27.1,70.8l3.2-0.6L50,70.9l-2.6,0.6L27.1,70.8z M67.3,76l2.9-1l23.5,0.8l-2.1,1L67.3,76z M90,77.6l-2.5,1.3L61.2,78l3.6-1.2
						L90,77.6z M72.5,74.1l2.4-0.8l21.9,0.7l-1.7,0.8L72.5,74.1z M72.9,72.4l-20.8-0.7l2.6-0.6l20.2,0.7L72.9,72.4z M65.8,74.8
						l-2.9,1L38.9,75l3.9-1L65.8,74.8z M60.4,76.6l-3.6,1.3l-25.8-0.9l4.9-1.2L60.4,76.6L60.4,76.6z M58.9,78.9l27,0.9l-3.1,1.6
						l-28.4-0.9L58.9,78.9z M81,82.3l-3.8,1.9l-30.8-1l5.5-1.9L81,82.3z M81.7,84.4l3.7-2l29.4,1l-2,2L81.7,84.4z M87.1,81.5
						l3.1-1.6l27.3,0.9l-1.6,1.6L87.1,81.5z M91.6,79.1l2.4-1.3l25.4,0.8l-1.3,1.3L91.6,79.1z M95.7,76.9l2-1l23.7,0.8l-1.1,1.1
						L95.7,76.9z M99.2,75l1.6-0.8l22.2,0.8l-0.9,0.9L99.2,75z M82.9,70.5l19.5,0.7l-1,0.5l-19.9-0.7L82.9,70.5z M99.8,72.5
						l-1.4,0.7l-21.2-0.7l1.9-0.7L99.8,72.5z M59.7,69.8l19,0.6l-1.6,0.5l-19.4-0.7L59.7,69.8z M36.5,69l18.5,0.6l-2.1,0.5L34,69.5
						L36.5,69z M10.3,68.7l3-0.5l17.9,0.6l-2.6,0.5L10.3,68.7z M23.2,71.6l21,0.7L41,73.1l-21.7-0.7L23.2,71.6z M10.6,74.1l5-0.9
						L38,73.9l-4.1,1L10.6,74.1z M27.7,77.8l26.5,0.9l-4.6,1.5l-27.8-0.9L27.7,77.8z M11.2,82l7.3-1.8l28.7,1L41.7,83L11.2,82z
						 M43.9,84.1l31.6,1.1l-4.6,2.4l-33.8-1.1L43.9,84.1z M34.5,87.4L69,88.5l-5.8,3l-37.2-1.3L34.5,87.4z M12.7,94.9l10.6-3.6
						l38.1,1.3l-7.3,3.8L12.7,94.9z M94.7,103.9l-46.8-1.6l9.1-4.8l42.5,1.4L94.7,103.9z M146.7,105.6l-47-1.6l4.7-5l42.7,1.4
						L146.7,105.6z M147.2,99.4L105.4,98l3.6-3.9l38.5,1.3L147.2,99.4z M147.6,94.3L110,93.1l2.9-3.1l35,1.2L147.6,94.3z M148,90.1
						l-34.2-1.2l2.3-2.5l32.2,1.1L148,90.1z M148.4,86.6L117,85.5l1.9-2l29.6,1L148.4,86.6z M148.5,83.5l-28.8-1l1.6-1.6l27.5,0.9
						L148.5,83.5z M148.9,81l-26.7-0.9l1.2-1.3l25.6,0.9L148.9,81z M149,78.7l-24.9-0.8l1-1.1l23.9,0.8L149,78.7z M149.2,76.7
						L126,75.9l0.9-0.9l22.4,0.7L149.2,76.7z M149.3,74.9l-21.7-0.7l0.7-0.7l21.1,0.7L149.3,74.9z M149.5,73.3l-20.4-0.7l0.6-0.6
						l20,0.7L149.5,73.3z M153,72.9l19.9,0.7l0.5,0.6L153,73.4L153,72.9z M152.9,74.3l21.1,0.7l0.5,0.7L152.9,75L152.9,74.3z
						 M152.9,75.9l22.4,0.7l0.8,0.9l-23.2-0.8L152.9,75.9z M152.8,77.7l23.9,0.8l0.9,1.2l-24.9-0.8L152.8,77.7z M152.7,79.7
						l25.6,0.9l1,1.4l-26.7-0.9L152.7,79.7z M152.6,82l27.5,0.9l1.3,1.7l-28.8-1L152.6,82z M152.4,84.6l29.6,1l1.6,2.1l-31.4-1.1
						L152.4,84.6z M152.3,87.7l32.2,1.1l2,2.6l-34.2-1.2L152.3,87.7z M152.2,91.3l35,1.2l2.5,3.3l-37.6-1.3L152.2,91.3z M151.9,95.5
						l38.5,1.3l3.1,4.1l-41.8-1.4L151.9,95.5z M151.5,105.8l0.3-5.1l42.7,1.4l4,5.3L151.5,105.8z M203.4,107.5l-4.2-5.3l42.5,1.4
						l8.4,5.4L203.4,107.5z M301.8,110.8l-46.4-1.6l-8.6-5.4l42.2,1.4L301.8,110.8z M286.2,104l-41.3-1.4l-6.7-4.2l38.1,1.3
						L286.2,104z M273.5,98.6l-37.2-1.3l-5.4-3.4l34.5,1.2L273.5,98.6z M301.3,95.2l-33.3-1.1l-6.5-2.8l31.2,1L301.3,95.2z
						 M289.5,91.3l-30.3-1l-5.3-2.3l28.7,1L289.5,91.3z M279.3,87.9L251.4,87l-4.4-1.8l26.5,0.9L279.3,87.9z M295,84.4l5.8,1.6
						l-25.3-0.8l-4.7-1.5L295,84.4z M286.5,82.2l4.8,1.3l-23.5-0.8l-3.8-1.3L286.5,82.2z M280.5,79.3l-3.1-0.8l19.2,0.6l3.7,0.8
						L280.5,79.3z"/>
					<g>
						<g class="st2">
							<path class="st3" d="M73.9,128.2c-0.1,0-0.2,0-0.3,0c-0.3-0.1-0.5-0.3-0.5-0.6l-1.1-6.5c-0.1-0.5-1.5-2.6-3.6-5l-0.6-0.6
								c-0.1-0.1-0.2-0.3-0.2-0.4l0-0.2c-0.6-0.9-2.5-2.9-4.7-5.2c-1.2-0.9-2.1-2.2-2.7-3.9c-2.8-1.6-5-4.5-5.5-5l-0.2-0.3
								c0-0.1,0-0.1-0.1-0.1l-0.1-0.2c-0.2-0.1-0.6-0.2-1.1-0.2l-0.1,0c-3.4-0.1-4.4-2.1-4.8-3c-0.6-2,0.1-4,2.1-5.5l0.3-0.2
								c0.1,0,0.1,0,0.1-0.1l0.3-0.2c1.7-0.9,3.5-1.5,5.5-1.8c3.6-0.6,6.8-0.2,9.1,0.3C74.9,77.5,87.4,69.9,88.9,69
								c3.2-2.3,18.4-10.6,21.5-12.3l0.2-0.1c0.1,0,0.1,0,0.1,0l0.2-0.1c3.2-1.2,3.6-3.3,3.6-3.4l0.1-0.4c0-0.1,0-0.2,0.1-0.2
								l0.2-0.4c0.2-0.4,0.3-0.6-0.5-1l-0.1,0c-2.7-1.4-3.3-3.3-3.4-4.6c-0.1-2.1,1.2-3.7,2.5-4.5l0.5-0.3c0.1,0,0.1-0.1,0.2-0.1
								l0.5-0.1c0.2-0.1,0.4-0.1,0.6-0.1c7.8-1.3,22.7,5.7,24.3,6.6c1.4,0.7,3.2,0.6,3.2,0.6c4.6-0.4,16.5-0.3,17.8-0.3
								c17.1-0.6,26.8,2.5,28.7,3.1c5.6,1.3,9.8,4.9,11.3,6.4c0.5,0.5,0.9,1.1,1.2,1.4c0.2,0.2,0.3,0.2,0.3,0.2
								c7.4,1.5,9,4.6,9.3,6.3c0.2,1.2-0.1,2.4-0.7,3.3c0.6,1.5,0.3,3.2-0.8,4.5c-1.2,1.4-3.2,2.5-5.7,3.2l-0.2,0.1
								c-0.1,0-0.1,0-0.1,0l-0.2,0c-0.2,0-4.8,0.7-8.9-0.6c-1-0.1-4-0.4-6.2,0c-0.3,0-0.5,0.1-0.7,0.1c-5.7,1.9-13.8,3.6-18.4,4.4
								c-1.3,1.9-2.5,3.9-2.9,4.5c-3.6,8.4-11.7,11-13.4,11.5c-0.4,0.2-0.9,0.3-1.3,0.4c-2.3,0.4-3.9-0.7-4.6-2
								c-0.1-0.2-0.2-0.4-0.3-0.6c-0.1,0-0.2,0.1-0.2,0.1c-0.4,0.2-0.8,0.3-1.2,0.3c-2.3,0.4-3.9-0.7-4.6-2c-0.6-1.1-1-2.9,0.4-5.3
								c-2.4,0.4-4.1,0.6-4.5,0.7c-1.2,0.3-2.5,0.5-3.9,0.8c-11.6,2-25.9,2.1-26.5,2.1l-0.1,0l-0.1,0l-0.1,0c-1.3-0.1-2.9,0-4.7,0.3
								c-2.7,0.5-5,1.2-5.7,1.5l-16.2,7.7c5.3,14.7-0.1,21.5-0.7,22.3l-4.4,5C74.3,128.1,74.1,128.1,73.9,128.2z M69,114.6l0.5,0.5
								c1.9,2.1,3.8,4.7,4,5.6c0,0,0,0.1,0,0.1l0.8,4.9l3.3-3.8c0.6-0.7,5.6-7,0.2-21.4c-0.2-0.4,0-0.8,0.4-1l16.9-8l0.1,0
								c0.7-0.3,3.1-1.1,6-1.6c1.9-0.3,3.6-0.5,5-0.4l0.2,0c0.6,0,14.7-0.1,26.2-2c1.4-0.2,2.6-0.5,3.8-0.7c0,0,0.1,0,0.1,0
								c0.4,0,3-0.4,6.4-1c0.3,0,0.6,0.1,0.8,0.3c0.2,0.3,0.2,0.6,0,0.9c-0.1,0.2-0.2,0.3-0.3,0.5c-1.5,1.8-1.8,3.4-1.1,4.7
								c0.5,0.8,1.5,1.5,3,1.2c0.3,0,0.6-0.2,1-0.3l0.1,0c0.3-0.1,0.7-0.2,0.9-0.3c0.2,0,0.4,0,0.6,0.1c0.2,0.1,0.4,0.3,0.4,0.5
								c0.1,0.3,0.2,0.6,0.4,0.9c0.5,0.8,1.5,1.5,3,1.2c0.3-0.1,0.6-0.2,1-0.3l0.1,0c1.5-0.4,9-2.8,12.4-10.6c0-0.1,0-0.1,0-0.1
								c0.4-0.6,1.7-2.8,3.1-4.9c0.1-0.2,0.3-0.3,0.5-0.3c4.5-0.8,12.8-2.4,18.5-4.4c0.3-0.1,0.6-0.2,0.9-0.2c2.4-0.4,5.7-0.1,6.7,0
								c0.1,0,0.1,0,0.2,0c3.8,1.2,8.1,0.5,8.2,0.5l0.1,0l0.1,0c2.2-0.6,3.9-1.5,4.9-2.7c0.8-0.9,0.9-2.1,0.3-3.2
								c-0.1-0.3-0.1-0.6,0.1-0.9c0.9-1,0.8-2,0.7-2.5c-0.2-1.1-1.3-3.7-8.1-5c-0.2,0-0.5-0.1-1-0.5c-0.1,0-0.1-0.1-0.1-0.1
								c-0.1,0-0.1-0.1-0.1-0.1c-0.3-0.4-0.6-0.9-1-1.3c-1.4-1.4-5.4-4.8-10.6-6c-0.1,0-0.1,0-0.1,0c-1.7-0.6-11.2-3.7-28.2-3
								c-1.4,0-13.1-0.1-17.6,0.3c-0.1,0-2.2,0.2-4-0.7c-1.6-0.8-16.2-7.7-23.4-6.4c-0.2,0-0.3,0.1-0.5,0.1l-0.3,0.1l-0.3,0.2
								c-0.9,0.5-1.8,1.6-1.7,3c0,1.4,0.9,2.5,2.5,3.3l0.1,0c1,0.5,2,1.3,1.3,3.1l-0.1,0.3l0,0.3c0,0.3-0.6,3.2-4.6,4.7l-0.3,0.1
								c-3,1.6-18.3,9.9-21.3,12.2l-0.1,0c-1.4,0.8-14,8.5-23.2,20.4c-0.2,0.2-0.5,0.4-0.8,0.3c-2.1-0.5-5.4-1-8.9-0.3
								c-1.8,0.3-3.5,0.9-5.1,1.7l-0.2,0.1l-0.2,0.1c-1.4,1.1-2,2.5-1.6,3.8c0.2,0.7,1,1.9,3.2,2c0.1,0,2,0,2.5,1l0.1,0.2l0.2,0.2
								c0.4,0.5,2.6,3.4,5.2,4.7c0.2,0.1,0.3,0.2,0.4,0.4c0.4,1.1,1.1,2.6,2.3,3.5c0.1,0,0.1,0.1,0.1,0.1c2.4,2.5,4.4,4.8,5,5.5
								c0.1,0.1,0.1,0.2,0.1,0.3L69,114.6z"/>
						</g>
						<g class="st4">
							<path class="st3" d="M74.9,124.7c-0.1,0-0.2,0-0.3,0c-0.3-0.1-0.5-0.3-0.5-0.6l-0.6-3.2c-0.1-0.7-1.9-3.3-4-5.7l-0.3-0.3
								c-0.1-0.1-0.2-0.3-0.2-0.4l0-0.1c-0.6-0.8-2.8-3.4-5.1-5.8c-1.3-0.9-2.1-2.6-2.5-3.9c-2.8-1.3-5-4.3-5.5-4.9l-0.1-0.1
								c0-0.1,0-0.1-0.1-0.1l-0.1-0.1c-0.4-0.8-1.9-1-2.4-1l-0.1,0c-2.3-0.1-3-1.3-3.2-2c-0.4-1.3,0.2-2.7,1.6-3.8l0.1-0.1
								c0.1,0,0.1,0,0.1-0.1l0.1-0.1c1.6-0.8,3.3-1.3,5.1-1.7c3.9-0.7,7.4-0.1,9.4,0.5C75.6,78.9,88.3,71.2,90,70.3
								c3-2.2,19.4-11.2,21.3-12.2l0.1,0c0.1,0,0.1,0,0.1,0l0.1,0c4.2-1.5,4.6-4.5,4.6-4.6l0-0.2c0-0.1,0-0.2,0.1-0.2l0.1-0.2
								c0.8-1.8-0.5-2.6-1.3-3l-0.1,0c-2-1-2.4-2.3-2.5-3.3c-0.1-1.4,0.9-2.5,1.7-3l0.2-0.1c0.1,0,0.1-0.1,0.2-0.1l0.2,0
								c0.2-0.1,0.3-0.1,0.5-0.1c7.4-1.3,22.7,6.1,23.4,6.4c1.8,0.9,4,0.7,4,0.7c4.6-0.4,16.3-0.3,17.6-0.3
								c17.3-0.6,26.9,2.6,28.2,3.1c5.3,1.2,9.2,4.6,10.7,6c0.5,0.5,0.8,1,1.1,1.3l0,0c0,0,0,0.1,0.2,0.2c0.3,0.2,0.7,0.5,1,0.5
								c6.5,1.3,7.9,3.6,8.1,5c0.2,0.9-0.1,2-1.1,2.9c0.1,0.1,0.2,0.3,0.3,0.5c0.6,1.1,0.5,2.4-0.4,3.2c-1,1.2-2.7,2.1-4.9,2.7
								l-0.1,0l-0.1,0l-0.1,0c-0.2,0-4.6,0.7-8.3-0.6c-0.8-0.1-4.3-0.4-6.8,0c-0.3,0.1-0.6,0.1-0.9,0.2c-6,2.1-14.9,3.8-18.8,4.5
								c-1.6,2.2-3,4.6-3.3,5.2c-3.4,8-11.3,10.4-12.4,10.7c-0.4,0.2-0.7,0.2-1.1,0.3c-1.5,0.3-2.5-0.5-3-1.2
								c-0.2-0.3-0.5-0.9-0.3-1.9c-1,0.4-1.7,0.6-2,0.7c-0.4,0.1-0.7,0.2-1,0.3c-1.5,0.3-2.5-0.5-3-1.2c-0.8-1.3-0.4-2.8,1.1-4.7
								c0.2-0.3,0.6-0.9,1.1-1.9c-4.2,0.7-7.4,1.1-7.9,1.2c-1.2,0.3-2.5,0.5-3.9,0.8c-11.5,2-25.6,2-26.2,2l-0.1,0l-0.1,0l-0.1,0
								c-1.4-0.1-3.1,0-5,0.4c-3,0.5-5.5,1.4-6,1.6l-17.6,8.4c5.9,15.1,0.3,21.7,0,22.1l-2.2,2.5C75.3,124.5,75.1,124.6,74.9,124.7z
								 M70.5,113.8l0.2,0.2c1.6,1.8,4.1,5.1,4.4,6.5l0.3,1.7l1.1-1.2c0.2-0.3,5.4-6.4-0.6-21.1c-0.2-0.4,0-0.8,0.4-1l18.3-8.7
								l0.1,0c0.5-0.2,3.2-1.1,6.3-1.7c2-0.3,3.8-0.5,5.4-0.4l0.1,0c0.6,0,14.6-0.1,25.9-2c1.4-0.2,2.6-0.5,3.8-0.7c0,0,0.1,0,0.1,0
								c0.4-0.1,4.1-0.6,8.6-1.4l0.7-0.1l0,0c0.3,0,0.6,0,0.7,0.3c0.2,0.2,0.2,0.6,0.1,0.8c-0.6,1.6-1.3,2.9-1.9,3.6
								c-1,1.3-1.4,2.3-1,2.9c0.1,0.2,0.5,0.7,1.3,0.5c0.2,0,0.5-0.1,0.8-0.2l0.1,0c0.4-0.1,1.9-0.5,3.7-1.5
								c0.3-0.2,0.7-0.1,0.9,0.1c0.3,0.3,0.3,0.7,0.1,0.9c-1,1.5-0.7,2.1-0.6,2.3c0.1,0.2,0.5,0.7,1.4,0.5c0.2,0,0.5-0.1,0.8-0.2
								l0.1,0c0.8-0.2,8.3-2.4,11.5-9.8c0-0.1,0-0.1,0-0.1c0.3-0.5,1.9-3.3,3.7-5.6c0.1-0.2,0.3-0.3,0.5-0.3
								c3.7-0.7,12.9-2.4,18.9-4.4c0.4-0.1,0.7-0.2,1.1-0.3c2.7-0.5,6.2-0.2,7.3,0c0.1,0,0.1,0,0.2,0c3.4,1.2,7.6,0.5,7.7,0.6l0.1,0
								l0.1,0c1.9-0.5,3.3-1.2,4.1-2.2c0.4-0.4,0.4-1,0.2-1.4c-0.2-0.3-0.4-0.4-0.6-0.5c-0.3-0.1-0.5-0.4-0.5-0.7
								c0-0.3,0.2-0.6,0.5-0.7c0.1,0,0.2-0.1,0.2-0.1c1.1-0.5,1.1-1.4,1-1.7c-0.1-0.4-0.7-2.5-6.8-3.7c-0.6-0.1-1.1-0.4-1.6-0.8
								c-0.2-0.2-0.4-0.4-0.5-0.5c-0.2-0.3-0.5-0.7-0.9-1.1c-1.3-1.3-5.1-4.5-10-5.6c-0.1,0-0.1,0-0.1,0c-1-0.4-10.5-3.7-27.7-3
								c-0.5,0-13-0.1-17.5,0.3c0,0-2.6,0.2-4.8-0.8c-5.4-2.6-16.9-7.2-22.5-6.3c-0.2,0-0.3,0-0.5,0.1l-0.1,0l-0.1,0.1
								c-0.5,0.3-1,0.9-1,1.6c0,0.8,0.6,1.4,1.6,1.9l0.1,0c1.7,0.8,3.2,2.5,2.1,5.1l0,0.1l0,0.1c0,0.2-0.6,4-5.6,5.9l-0.1,0
								c-1.9,1-18.4,10-21.1,12.1l-0.1,0c-1.4,0.8-14.3,8.6-23.4,20.9c-0.2,0.3-0.5,0.4-0.8,0.3c-1.8-0.5-5.3-1.2-9.2-0.6
								c-1.7,0.3-3.2,0.8-4.6,1.5l-0.1,0.1c-0.4,0.3-1.3,1.1-1,2c0.2,0.6,0.8,0.9,1.8,0.9l0.1,0c0,0,2.9,0,3.8,1.9l0.1,0.1
								c0.2,0.3,2.6,3.5,5.2,4.5c0.2,0.1,0.4,0.3,0.5,0.5c0.2,0.9,0.8,2.6,2,3.4c0.1,0,0.1,0.1,0.1,0.1c1.9,1.9,4.9,5.2,5.5,6.2
								C70.3,113.7,70.3,113.8,70.5,113.8L70.5,113.8z"/>
						</g>
						<g>
							<path class="st3" d="M75.9,121.1c-0.1,0-0.2,0-0.3,0c-0.3-0.1-0.5-0.3-0.5-0.6c-0.2-1.4-2.8-4.7-4.4-6.5
								c-0.1-0.1-0.2-0.3-0.2-0.4c-0.2-0.6-3.1-3.8-5.6-6.4c-1.3-0.8-1.9-2.8-2.2-3.8c-2.8-0.9-5.4-4.5-5.5-4.6c0-0.1,0-0.1-0.1-0.1
								c-0.9-1.9-3.8-1.9-3.9-1.9c-0.4,0-1.5,0-1.8-0.9c-0.3-0.9,0.6-1.7,1-2c0.1,0,0.1,0,0.1-0.1C58.7,90.7,65,92.4,67,93
								c9.1-12.6,22.8-20.8,23.8-21.4c2.6-2.1,20.4-11.7,21.2-12.1c0.1,0,0.1,0,0.1,0c5.1-1.9,5.6-5.8,5.6-5.9c0-0.1,0-0.2,0.1-0.3
								c1.5-3.5-1.9-5-2.1-5.1c-1.1-0.5-1.6-1.2-1.6-1.9c0-1,0.8-1.6,1-1.6c0.1,0,0.1-0.1,0.2-0.1c6.7-1.6,22.2,5.9,22.9,6.2
								c2.2,1.1,4.8,0.8,4.8,0.8c4.6-0.4,17-0.3,17.5-0.3c17.5-0.7,26.8,2.7,27.7,3c4.9,1.1,8.7,4.3,10,5.6c0.4,0.3,0.6,0.7,0.9,1
								c0.1,0.1,0.3,0.3,0.5,0.5c0.5,0.4,1.1,0.7,1.6,0.8c6.1,1.2,6.8,3.3,6.8,3.7c0.1,0.4,0,0.8-0.3,1.2c-0.6,0.7-2,1-3.8,1.2
								c1.3,0.3,2.1,0.6,2.4,0.7c0.4,0,0.9,0.3,1.1,0.7c0.3,0.5,0.2,1-0.2,1.4c-0.8,0.9-2.2,1.7-4.1,2.2c-0.1,0-0.1,0-0.1,0
								c-0.2,0-4.4,0.7-7.7-0.6c-0.7-0.1-5.7-0.6-8.5,0.3l0,0c-6.1,2.1-15.3,3.8-19.3,4.5c-1.9,2.5-3.6,5.6-3.9,6
								c-3.2,7.5-10.7,9.7-11.5,9.9c-0.5,0.2-1.6,0.6-2.1-0.2c-0.5-0.6-0.2-1.7,1-3.1c0.4-0.6,0.9-1.4,1.4-2.5
								c-3,2.5-6.1,3.4-6.6,3.5c-0.5,0.2-1.5,0.6-2.1-0.2c-0.5-0.6-0.2-1.6,0.9-3c0.7-0.9,1.5-2.7,2.4-4.9c-5.5,1-10.3,1.7-10.8,1.7
								c-11.5,2.7-29.5,2.8-29.7,2.8l-0.1,0c-5.1-0.4-11.3,1.9-11.7,2l-19,9c6.4,15.2,1.1,21.5,0.9,21.8
								C76.2,121,76.1,121.1,75.9,121.1z M71.9,113c0.6,0.6,2.9,3.3,4,5.5c1.1-2.5,2.6-8.7-2.2-19.6c-0.2-0.4,0-0.9,0.4-1l19.8-9.4
								l0.1,0c0.3-0.1,6.8-2.5,12.4-2.2c0.8,0,18.2-0.2,29.4-2.8c0,0,0.1,0,0.1,0c0.1,0,5.8-0.8,12.1-2c0.3,0,0.5,0,0.8,0.3
								c0.2,0.2,0.2,0.5,0.2,0.8c-1,3.2-2.1,5.4-3.1,6.7c-0.2,0.2-0.3,0.4-0.4,0.6c0.5-0.1,5.5-1.6,8.6-6.1c0.2-0.3,0.7-0.4,1-0.3
								c0.3,0.2,0.5,0.6,0.4,1c-1.1,3.2-2.1,5.5-3.1,6.8c-0.2,0.2-0.4,0.5-0.5,0.7c0,0,0,0,0.1,0c0.1,0,7.5-1.9,10.5-9.1
								c0-0.1,0-0.1,0-0.1c0.1-0.1,2-3.7,4.2-6.4c0.1-0.1,0.3-0.3,0.5-0.3l0,0c3.8-0.6,13.1-2.4,19.3-4.5c0,0,0.1,0,0.1,0
								c3.3-1,8.9-0.3,9.2-0.3c0.1,0,0.1,0,0.2,0c2.9,1,6.6,0.6,7.1,0.5c1.5-0.4,2.4-0.9,2.9-1.4c-0.9-0.3-3.7-1.2-8.3-2
								c-0.4-0.1-0.7-0.5-0.7-0.8c0.1-0.4,0.4-0.7,0.8-0.7c5,0.1,8.3-0.3,8.9-0.9c-0.3-0.4-1.4-1.6-5.5-2.4
								c-0.8-0.2-1.6-0.5-2.4-1.2c-0.3-0.2-0.6-0.5-0.8-0.8c-0.2-0.3-0.4-0.6-0.7-0.8c-1.3-1.3-4.8-4.2-9.3-5.2c-0.1,0-0.1,0-0.1,0
								c-0.1,0-9.6-3.6-27.2-3c-0.2,0-12.9-0.1-17.4,0.3c-0.1,0-3.1,0.3-5.7-1c-0.1-0.1-15.5-7.4-21.7-6.1c-0.1,0-0.1,0.1-0.2,0.2
								l0,0c0,0,0.1,0.2,0.7,0.5c1.7,0.8,4.5,3.2,2.9,7c-0.1,0.8-1,5-6.5,7.1c-6.5,3.5-19.1,10.4-20.9,12c0,0.1-0.1,0-0.1,0.1
								c-0.1,0.1-14.5,8.4-23.7,21.4c-0.2,0.3-0.6,0.4-0.9,0.3c-0.1,0-7.1-2.7-13.6,0.5c0,0,0,0-0.1,0c0.7,0,3.9,0.2,5.2,2.8
								c0.8,1.1,3.1,3.8,5,4.1c0.3,0,0.6,0.3,0.6,0.7c0.2,1,0.8,2.8,1.6,3.3c0.1,0,0.1,0.1,0.2,0.2C68.3,108.6,71.3,111.7,71.9,113z
								 M206.5,66.4L206.5,66.4L206.5,66.4z"/>
						</g>
						<g>
							<path class="st3" d="M182.1,63.8c0,0,3.4-2,5.4-0.9C187.4,62.8,187.7,65,182.1,63.8z"/>
						</g>
						<g>
							<path class="st3" d="M78.9,87.4c-0.3,0-0.5,0-0.8-0.3c-0.3-0.3-0.3-0.8,0.1-1.1c0.2-0.2,17.1-15,34.4-21
								c0.4-0.2,0.9,0.1,1,0.5c0.2,0.4-0.1,0.9-0.5,1c-17,5.9-33.7,20.5-33.9,20.6C79.1,87.4,79,87.4,78.9,87.4z"/>
						</g>
					</g>
					<path class="st5" d="M303.2,102.6c3.5,0,6.3,3.1,6.3,6.9s-2.8,6.9-6.3,6.9l-225-0.8L6,102.8c-3.4-0.2-6.1-3.1-6-6.5
						c0-3.7,2.7-6.6,6-6.6L5.8,58.6l13.3,13.9l-0.7,17.3v4.1l58,9.9L303.2,102.6z"/>
					<g class="st6">
						<path d="M303.3,86.7c0,0-18.2-45.3-84.8-25.5L5.9,46.9c0-8.6,6.5-15.5,14.3-15.5l43.2,0.2c8.9,0.1,141.8,18.5,141.8,18.5
							l14-12.4h34.9C254.1,37.7,303.3,36.1,303.3,86.7z"/>
					</g>
					
						<ellipse transform="matrix(0.9954 -9.580734e-02 9.580734e-02 0.9954 -8.3037 25.0588)" class="st7" cx="256.8" cy="99" rx="33.7" ry="33.5"/>
					
						<ellipse transform="matrix(0.9954 -9.588201e-02 9.588201e-02 0.9954 -8.3093 25.0788)" class="st5" cx="256.8" cy="99" rx="32.8" ry="32.6"/>
					
						<ellipse transform="matrix(0.9954 -9.580738e-02 9.580738e-02 0.9954 -8.3037 25.0588)" cx="256.8" cy="99" rx="24.7" ry="24.5"/>
					
						<ellipse transform="matrix(0.9954 -9.584467e-02 9.584467e-02 0.9954 -8.3065 25.0688)" class="st8" cx="256.8" cy="99" rx="23.5" ry="23.3"/>
					
						<ellipse transform="matrix(0.9954 -9.588195e-02 9.588195e-02 0.9954 -8.3093 25.0788)" class="st9" cx="256.8" cy="99" rx="22.3" ry="22.1"/>
					
						<ellipse transform="matrix(0.5205 -0.8539 0.8539 0.5205 38.6382 266.6701)" class="st10" cx="256.8" cy="98.9" rx="13.8" ry="13.8"/>
					
						<ellipse transform="matrix(6.115760e-02 -0.9981 0.9981 6.115760e-02 142.2758 349.2522)" class="st11" cx="256.8" cy="99" rx="12.7" ry="12.7"/>
					<g>
						<g>
							<g>
								<g>
									<defs>
										<path id="SVGID_1_" d="M191.9,48.7c-18.2-36.7-27.7-35.4-27.7-35.4s-24.1-0.8-31.7-0.1c-7.6,0.7-10.2,5.5-10.2,5.5
											l-7.6,11.7c0,0-5.1,6.9,7.5,8.3C132.4,39.9,191.9,48.7,191.9,48.7z"/>
									</defs>
									<clipPath id="SVGID_00000039109030428551686590000007332955243433723809_">
										<use xlink:href="#SVGID_1_"  style="overflow:visible;"/>
									</clipPath>
									<g style="clip-path:url(#SVGID_00000039109030428551686590000007332955243433723809_);">
										<path class="st13" d="M190.8,12h-81.2v36.7h82.3V12H190.8z"/>
									</g>
								</g>
							</g>
						</g>
					</g>
					<g>
						<g>
							<g>
								<g>
									<defs>
										<path id="SVGID_00000080198474143693678100000018087775847941674636_" d="M197.1,13.4l22.7,24.3l-12.7,11.7l-20.8-29.1
											c0,0-3.8-4.2,0-6.2L197.1,13.4z"/>
									</defs>
									<clipPath id="SVGID_00000147918530182299231830000000555581339450018737_">
										<use xlink:href="#SVGID_00000080198474143693678100000018087775847941674636_"  style="overflow:visible;"/>
									</clipPath>
									<g style="clip-path:url(#SVGID_00000147918530182299231830000000555581339450018737_);">
										<path class="st15" d="M219,13.4h-36.5v36h37.3v-36L219,13.4z"/>
									</g>
								</g>
							</g>
						</g>
					</g>
				</g>
				
					<ellipse transform="matrix(0.9954 -9.585401e-02 9.585401e-02 0.9954 -9.2058 6.764)" class="st7" cx="65.8" cy="99.2" rx="33.7" ry="33.5"/>
				
					<ellipse transform="matrix(0.9954 -9.583534e-02 9.583534e-02 0.9954 -9.2041 6.7626)" class="st5" cx="65.8" cy="99.2" rx="32.8" ry="32.6"/>
				
					<ellipse transform="matrix(0.9954 -9.585399e-02 9.585399e-02 0.9954 -9.2058 6.764)" cx="65.8" cy="99.2" rx="24.7" ry="24.5"/>
				
					<ellipse transform="matrix(0.9954 -9.584467e-02 9.584467e-02 0.9954 -9.2049 6.7633)" class="st8" cx="65.8" cy="99.2" rx="23.5" ry="23.3"/>
				
					<ellipse transform="matrix(0.9954 -9.583536e-02 9.583536e-02 0.9954 -9.2041 6.7626)" class="st9" cx="65.8" cy="99.2" rx="22.3" ry="22.1"/>
				<ellipse class="st10" cx="66.6" cy="99.3" rx="13.9" ry="13.9"/>
				<ellipse class="st11" cx="66.6" cy="99.3" rx="12.6" ry="12.6"/>
			</g>
		</g>
	</g>
</g>
<g id="Layer_2_00000084493619915127680480000009720529392773094786_">
</g>
</svg>
